<svg width="64" height="64" viewBox="0 0 64 64" fill="none" xmlns="http://www.w3.org/2000/svg">
<path d="M32 64C49.6731 64 64 49.6731 64 32C64 14.3269 49.6731 0 32 0C14.3269 0 0 14.3269 0 32C0 49.6731 14.3269 64 32 64Z" fill="#1E9BFD"/>
<path fill-rule="evenodd" clip-rule="evenodd" d="M51.553 43.7433L51.5189 43.8293C51.1968 44.6515 50.8731 45.4729 50.5339 46.2889C50.2425 46.9901 49.941 47.694 49.6079 48.3764C49.4088 48.7839 49.0934 49.4275 48.7734 49.7475C48.4476 50.0738 48.0877 50.3641 47.6999 50.6135C45.4674 52.0424 42.6766 51.841 40.2233 51.1831C29.685 48.36 15.6391 34.3141 12.8157 23.776C12.1582 21.3219 11.9572 18.5304 13.3875 16.2979C13.6359 15.9102 13.9257 15.5508 14.2517 15.2258C14.5714 14.9058 15.2157 14.5905 15.6229 14.3914C16.306 14.0582 17.0104 13.7568 17.7116 13.4654C18.5272 13.1279 19.3491 12.8029 20.1707 12.4804L20.2564 12.4474C20.6869 12.2769 21.1645 12.2671 21.6016 12.4199C22.0387 12.5726 22.4062 12.8778 22.6369 13.2793L26.711 20.3375C26.9657 20.7819 27.0342 21.3091 26.9017 21.8039C26.7691 22.2986 26.4462 22.7209 26.0035 22.9785C24.5624 23.8111 23.4126 25.1064 23.073 26.7674C22.9021 27.5585 22.9055 28.3773 23.083 29.1669C23.2604 29.9565 23.6076 30.6981 24.1005 31.34C25.3312 32.9466 26.6729 34.4651 28.1155 35.8844C29.5351 37.3273 31.054 38.6691 32.6609 39.9C33.3027 40.3931 34.0444 40.7405 34.8341 40.9179C35.6239 41.0954 36.4428 41.0987 37.2339 40.9276C38.8934 40.5884 40.1901 39.4379 41.0221 37.9967C41.2795 37.554 41.7016 37.231 42.1964 37.0985C42.691 36.9659 43.2181 37.0345 43.6624 37.2892L50.7199 41.3643C51.1214 41.5946 51.4265 41.9617 51.5795 42.3986C51.7325 42.8355 51.723 43.3128 51.553 43.7433Z" fill="white"/>
</svg>
