<svg width="248" height="193" viewBox="0 0 248 193" fill="none" xmlns="http://www.w3.org/2000/svg">
<g clip-path="url(#clip0_29_80)">
<path d="M210.603 115.786C209.586 115.737 208.583 116.119 207.86 116.843L171.121 153.581C170.398 154.305 170.014 155.302 170.065 156.324C171.1 176.874 188.04 192.97 208.632 192.97C229.926 192.97 247.249 175.647 247.249 154.354C247.249 133.762 231.152 116.821 210.603 115.786ZM227.646 154.354C227.646 164.838 219.117 173.368 208.632 173.368C198.148 173.368 189.618 164.838 189.618 154.354C189.618 143.869 198.147 135.339 208.632 135.339C219.117 135.339 227.646 143.869 227.646 154.354Z" fill="#424242"/>
<path d="M208.711 128.025C197.937 128.025 188.885 134.579 185.019 142.914C176.673 160.233 189.253 180.595 208.711 180.595C223.228 180.595 234.997 168.827 234.997 154.31C234.996 139.793 223.228 128.025 208.711 128.025ZM220.574 169.099L217.295 162.932C216.356 161.166 214.163 160.496 212.397 161.435C210.631 162.374 209.96 164.567 210.9 166.333L214.164 172.473C208.861 174.063 203.082 173.275 198.366 170.199L203.15 165.244C204.54 163.806 204.5 161.513 203.061 160.123C201.622 158.734 199.33 158.774 197.94 160.213L193.163 165.158C189.909 160.504 188.984 154.763 190.373 149.477C197.139 152.777 197.072 152.873 198.166 152.873C201.983 152.873 203.205 147.677 199.756 145.995L193.524 142.955C196.782 138.604 201.867 135.702 207.641 135.38L206.666 142.321C206.388 144.302 207.768 146.134 209.748 146.412C211.739 146.689 213.562 145.303 213.839 143.33L214.819 136.359C220.153 138.174 224.418 142.296 226.424 147.539L219.468 148.766C217.498 149.113 216.183 150.991 216.53 152.961C216.878 154.931 218.756 156.246 220.726 155.899L227.664 154.676C227.553 160.508 224.812 165.694 220.574 169.099Z" fill="#003249"/>
<path d="M224.722 133.47C228.134 137.904 230.168 143.454 230.168 149.481C230.168 171.334 205.037 183.51 187.889 170.336C203.163 190.145 234.997 179.35 234.997 154.31C234.996 145.82 230.968 138.276 224.722 133.47Z" fill="#003249"/>
<path d="M208.632 165.995C215.062 165.995 220.274 160.783 220.274 154.353C220.274 147.924 215.062 142.712 208.632 142.712C202.203 142.712 196.991 147.924 196.991 154.353C196.991 160.783 202.203 165.995 208.632 165.995Z" fill="#B8CDF8"/>
<path d="M208.415 142.718C213.885 150.291 208.595 160.988 199.191 161.161C205.767 170.266 220.274 165.649 220.274 154.354C220.274 147.878 214.977 142.6 208.415 142.718Z" fill="#9D8DF1"/>
<path d="M205.365 155.916L194.643 133.497C193.78 131.692 194.543 129.53 196.348 128.667C198.153 127.804 200.314 128.567 201.178 130.372L211.9 152.791C212.763 154.595 212 156.758 210.195 157.621C208.388 158.485 206.227 157.72 205.365 155.916Z" fill="#B8CDF8"/>
<path d="M81.3714 101.732L59.8757 123.229C59.036 124.068 59.036 125.429 59.8757 126.269L65.4475 131.841C66.2873 132.681 67.6482 132.681 68.4879 131.841L93.1182 107.211L81.3714 101.732Z" fill="#003249"/>
<path d="M72.597 153.08L59.588 156.566C58.3285 156.904 57.3478 157.892 57.0199 159.153C54.8439 167.522 47.2767 173.367 38.6172 173.367C28.1328 173.367 19.6032 164.838 19.6032 154.353C19.6032 137.395 40.2572 128.951 52.1488 141C53.0634 141.927 54.4054 142.291 55.6639 141.954L68.6879 138.464C71.0793 137.823 72.1387 135.019 70.7639 132.956C63.5739 122.173 51.5567 115.736 38.6177 115.736C17.3234 115.737 0 133.06 0 154.354C0 175.648 17.3234 192.971 38.6167 192.971C58.9496 192.971 75.875 177.085 77.1489 156.806C77.3039 154.337 74.9879 152.44 72.597 153.08Z" fill="#424242"/>
<path d="M220.914 117.734C231.016 124.714 237.591 136.37 237.591 149.525C237.591 175.716 211.832 194.55 186.696 186.142C212.167 203.725 247.249 185.473 247.249 154.354C247.249 137.365 236.288 122.871 220.914 117.734Z" fill="#212121"/>
<path d="M61.1053 128.128C62.4787 130.188 61.4226 132.994 59.0293 133.636L46.4258 137.013C52.2758 139.652 52.2917 142.857 55.6634 141.954L68.6874 138.464C71.0788 137.823 72.1383 135.019 70.7634 132.956C65.9262 125.702 58.9027 120.419 50.8855 117.735C54.8574 120.478 58.3392 123.98 61.1053 128.128Z" fill="#212121"/>
<path d="M72.597 153.08L67.2367 154.517C64.1519 178.36 39.9012 193.904 16.7303 186.146C41.4185 203.195 75.2791 186.578 77.1489 156.806C77.3039 154.337 74.9879 152.44 72.597 153.08Z" fill="#212121"/>
<path d="M38.6404 128.025C24.1237 128.025 12.3552 139.794 12.3552 154.31C12.3552 169.673 25.3701 180.882 38.483 180.591C53.0229 180.689 64.9251 168.921 64.9251 154.31C64.9256 139.793 53.1576 128.025 38.6404 128.025ZM42.0632 172.958L42.1328 165.577C42.1516 163.576 40.5455 161.94 38.5453 161.921C36.5571 161.893 34.9085 163.508 34.8897 165.509L34.8201 172.887C29.2778 171.753 24.6167 168.201 21.9859 163.381L29.032 161.165C30.9399 160.565 32.0004 158.532 31.4002 156.623C30.7999 154.715 28.7669 153.654 26.8584 154.255L19.805 156.473C19.1512 150.719 21.1137 145.254 24.8645 141.287L29.1754 147.34C30.3373 148.971 32.5992 149.348 34.2266 148.189C35.8559 147.029 36.236 144.767 35.0756 143.138L30.7521 137.067C43.2488 131.34 57.6027 140.475 57.6027 154.309C57.6027 163.613 50.901 171.346 42.0632 172.958Z" fill="#003249"/>
<path d="M54.6512 133.47C67.8239 150.59 55.702 175.766 33.8113 175.766C33.8108 175.766 33.5751 175.766 33.5747 175.766C28.3525 175.766 22.5996 174.007 17.8101 170.328C23.1506 177.258 31.4421 180.747 38.4829 180.591C63.6487 180.76 74.4968 148.74 54.6512 133.47Z" fill="#003249"/>
<path d="M189.166 90.3063C191.488 92.6281 191.488 96.3928 189.166 98.7151C187.096 100.785 183.879 101.01 181.56 99.3888V99.3883L172.825 94.2024C171.01 93.125 168.744 93.1564 166.96 94.2835L121.018 123.305L122.076 140.09C122.161 141.436 121.525 142.725 120.407 143.478L81.5618 169.64C80.3762 170.438 80.9417 172.289 82.3706 172.289H172.212C173.669 172.289 174.783 170.988 174.558 169.548L172.63 157.194L219.375 110.449C224.166 105.657 224.166 97.8884 219.375 93.0965L181.14 54.8623C179.925 53.6468 177.844 54.3417 177.602 56.0434L176.025 67.1469C175.228 72.7598 177.135 78.419 181.167 82.4049L189.194 90.2787L189.166 90.3063Z" fill="#03045E"/>
<path d="M219.375 93.0965L181.141 54.8623C179.925 53.6468 177.844 54.3417 177.603 56.0434L176.988 60.3684L200.059 83.4388C204.851 88.2307 204.851 95.9997 200.059 100.792L153.314 147.537L155.242 159.89C155.466 161.33 154.353 162.631 152.896 162.631H91.9694L81.5618 169.64C80.3762 170.439 80.9417 172.289 82.3706 172.289H172.212C173.669 172.289 174.783 170.988 174.558 169.548L172.63 157.195L219.375 110.45C224.167 105.657 224.167 97.8884 219.375 93.0965Z" fill="#3050FE"/>
<path d="M189.165 98.716C191.487 96.394 191.487 92.6292 189.165 90.3072C186.843 87.9851 183.078 87.9851 180.756 90.3072C178.434 92.6292 178.434 96.394 180.756 98.716C183.078 101.038 186.843 101.038 189.165 98.716Z" fill="#424242"/>
<path d="M121.018 123.305L122.076 140.09C122.161 141.436 121.525 142.725 120.407 143.478L81.5618 169.64C80.3762 170.438 80.9417 172.289 82.3706 172.289H172.212C173.669 172.289 174.783 170.988 174.558 169.548L172.63 157.194L121.018 123.305Z" fill="#6D81F3"/>
<path d="M174.558 169.548L172.629 157.194L121.018 123.305L121.217 126.461L153.314 147.537L153.681 149.892C154.726 156.585 149.55 162.631 142.777 162.631H91.9694L81.5617 169.64C80.3767 170.439 80.9417 172.289 82.3706 172.289H172.212C173.669 172.289 174.783 170.988 174.558 169.548Z" fill="#3050FE"/>
<path d="M121.018 123.305L172.63 157.194L210.958 118.865L157.104 100.51L121.018 123.305Z" fill="#B8CDF8"/>
<path d="M189.349 111.5L155.14 145.71L172.63 157.194L210.958 118.865L189.349 111.5Z" fill="#9D8DF1"/>
<path d="M166.96 94.2834C168.308 93.432 169.929 93.208 171.425 93.6122C170.559 86.8713 165.97 81.1807 159.54 78.9284L132.327 69.3972C119.294 64.8323 105.063 74.0404 100.388 86.9857C98.9802 90.8852 94.5288 92.7357 90.7713 90.9832L72.3068 82.373C71.1319 81.8249 70.7036 80.4505 71.2063 79.2553C71.4535 78.6671 71.1932 77.9833 70.6099 77.7115L54.2374 70.0767C49.231 67.7423 43.4989 67.5095 38.3197 69.4301L25.9781 74.0071C25.1383 74.3185 25.0905 75.4886 25.9022 75.8672L123.827 121.531L166.96 94.2834Z" fill="#B8CDF8"/>
<path d="M164.716 81.78L111.15 115.618L123.828 121.53L166.96 94.283C168.307 93.4316 169.929 93.2076 171.425 93.6118C170.816 88.8686 168.357 84.6509 164.716 81.78Z" fill="#73FBD3"/>
<path d="M164.716 81.7799C161.639 79.3533 162.406 79.9323 132.327 69.3972C120.452 65.2379 107.991 72.5728 102.341 82.7173L137.372 99.0531L164.716 81.7799Z" fill="#03045E"/>
<path d="M121.808 141.729C121.804 141.739 121.8 141.749 121.795 141.759C121.8 141.749 121.804 141.739 121.808 141.729Z" fill="#6D81F3"/>
<path d="M122.068 140.637C122.065 140.673 122.057 140.709 122.054 140.745C122.058 140.708 122.065 140.673 122.068 140.637Z" fill="#6D81F3"/>
<path d="M121.98 141.186C121.974 141.212 121.966 141.237 121.959 141.263C121.966 141.237 121.973 141.212 121.98 141.186Z" fill="#6D81F3"/>
<path d="M123.828 121.53L96.8496 108.95V132.161C104.735 124.492 118.019 127.349 121.93 137.777L122.076 140.09L121.018 123.305L123.828 121.53Z" fill="#424242"/>
<path d="M122.076 140.09L121.93 137.777C119.747 131.957 114.134 127.813 107.551 127.813C99.071 127.813 92.1968 134.687 92.1968 143.167C92.1968 149.131 95.5993 154.297 100.568 156.839L120.407 143.478C121.525 142.725 122.161 141.436 122.076 140.09Z" fill="#73FBD3"/>
<path d="M121.93 137.777C118.648 129.026 108.415 125.273 100.298 129.632C103.564 131.382 106.128 134.271 107.443 137.777C107.803 143.5 108.542 141.712 94.4651 151.193C95.9394 153.589 98.0516 155.552 100.568 156.839L120.407 143.478C121.526 142.725 122.161 141.435 122.076 140.09L121.93 137.777Z" fill="#4A8FE7"/>
<path d="M96.8496 132.161V127.169L35.7217 143.548C29.7539 145.147 26.2127 151.281 27.8116 157.249C29.4105 163.217 35.5444 166.758 41.5122 165.159L94.3535 151C90.7167 144.892 91.7607 137.111 96.8496 132.161Z" fill="#B8CDF8"/>
<path d="M96.8497 127.169L73.7082 133.37C72.8998 135.731 72.7081 138.157 73.0254 140.448C73.4991 143.869 71.4588 147.13 68.1234 148.024L28.3081 158.692C30.4382 163.772 36.0438 166.625 41.5123 165.159L94.3535 151C90.7172 144.893 91.7589 137.113 96.8497 132.161V127.169Z" fill="#9D8DF1"/>
<path d="M83.3504 121.425C81.3498 121.425 81.4845 121.06 71.1237 110.699C69.7093 109.284 69.7093 106.991 71.1237 105.577C72.5381 104.162 74.8315 104.162 76.2454 105.577L85.9113 115.243C87.3257 116.657 87.3257 118.95 85.9113 120.364C85.2043 121.071 84.2776 121.425 83.3504 121.425Z" fill="#424242"/>
<path d="M73.9921 127.162L64.3262 117.496C62.9118 116.082 62.9118 113.789 64.3262 112.375C65.7407 110.96 68.034 110.96 69.448 112.375L79.1139 122.04C80.5283 123.455 80.5283 125.748 79.1139 127.162C77.6994 128.577 75.4061 128.576 73.9921 127.162Z" fill="#424242"/>
<path d="M35.6859 155.139C35.1682 153.207 36.3147 151.221 38.2468 150.703L79.7151 139.591C81.6486 139.075 83.6334 140.221 84.1511 142.152C84.6687 144.084 83.5223 146.071 81.5902 146.588L40.1219 157.7C38.1845 158.218 36.2031 157.068 35.6859 155.139Z" fill="#9D8DF1"/>
<path d="M84.1516 142.152C83.6339 140.221 81.6491 139.074 79.7156 139.591L73.0867 141.368C73.1137 144.437 71.158 147.21 68.1239 148.023L36.4161 156.52C37.2897 157.561 38.7012 158.08 40.1224 157.7L81.5907 146.588C83.5228 146.071 84.6692 144.085 84.1516 142.152Z" fill="#4A8FE7"/>
</g>
<defs>
<clipPath id="clip0_29_80">
<rect width="248" height="193" fill="white"/>
</clipPath>
</defs>
</svg>
