<svg width="256" height="160" viewBox="0 0 256 160" fill="none" xmlns="http://www.w3.org/2000/svg">
<g clip-path="url(#clip0_29_133)">
<path d="M191.867 71.2839C190.409 71.2839 189.019 70.4373 188.396 69.017L167.31 20.9593C166.728 19.6352 166.723 18.1126 167.297 16.7831C167.87 15.4535 168.982 14.4119 170.346 13.9259L171.117 13.6511L149.522 7.72029L144.297 9.18902C142.285 9.75625 140.192 8.58187 139.625 6.56736C139.059 4.55336 140.233 2.46153 142.247 1.89529L148.485 0.141704C149.148 -0.0448792 149.849 -0.0473739 150.514 0.135219L182.877 9.02338C184.734 9.53225 186.031 11.1681 186.103 13.0938C186.175 15.0195 185.004 16.7476 183.188 17.3942L175.259 20.2184L195.334 65.9718C196.175 67.888 195.303 70.1225 193.387 70.9632C192.892 71.1812 192.375 71.2839 191.867 71.2839Z" fill="#428DFF"/>
<path d="M98.4163 77.724C96.765 77.724 95.2464 76.636 94.7735 74.9682L83.9132 36.6751C83.3425 34.6626 84.5114 32.5683 86.5244 31.9971C88.5349 31.4278 90.6312 32.5947 91.2024 34.6082L102.063 72.9013C102.633 74.9138 101.465 77.0081 99.4515 77.5794C99.1063 77.6776 98.7586 77.724 98.4163 77.724Z" fill="#428DFF"/>
<path d="M211.877 70.2667C187.823 70.2667 168.323 89.7662 168.323 113.82C168.323 137.874 187.823 157.373 211.877 157.373C235.93 157.373 255.43 137.874 255.43 113.82C255.43 89.7662 235.93 70.2667 211.877 70.2667ZM211.877 146.261C193.989 146.261 179.436 131.708 179.436 113.82C179.436 95.9319 193.989 81.3794 211.877 81.3794C229.765 81.3794 244.317 95.9324 244.317 113.82C244.317 131.708 229.764 146.261 211.877 146.261Z" fill="#0072A2"/>
<path d="M211.877 70.2667C208.668 70.2667 205.543 70.6239 202.532 71.2825C211.364 73.2141 219.192 77.8219 225.124 84.2186C236.424 89.2963 244.317 100.65 244.317 113.82C244.317 126.989 236.424 138.343 225.125 143.42C219.193 149.817 211.365 154.425 202.532 156.357C205.543 157.015 208.668 157.372 211.877 157.372C235.931 157.372 255.43 137.873 255.43 113.819C255.43 89.7652 235.931 70.2667 211.877 70.2667Z" fill="#428DFF"/>
<path d="M43.5533 71.8947C19.4995 71.8947 0 91.3941 0 115.448C0 139.502 19.4995 159.001 43.5533 159.001C67.6071 159.001 87.1066 139.502 87.1066 115.448C87.1066 91.3941 67.6071 71.8947 43.5533 71.8947ZM43.5533 147.889C25.6657 147.889 11.1127 133.336 11.1127 115.448C11.1127 97.5599 25.6652 83.0074 43.5533 83.0074C61.4414 83.0074 75.9939 97.5604 75.9939 115.448C75.9939 133.336 61.4409 147.889 43.5533 147.889Z" fill="#0072A2"/>
<path d="M43.5533 71.8947C40.0137 71.8947 36.5774 72.3272 33.2827 73.1239C41.2015 75.0391 48.2788 79.1086 53.8468 84.6906C66.7026 89.005 75.9939 101.158 75.9939 115.447C75.9939 129.737 66.7021 141.89 53.8468 146.204C48.2788 151.786 41.2015 155.856 33.2827 157.771C36.5774 158.568 40.0142 159 43.5533 159C67.6071 159 87.1066 139.501 87.1066 115.447C87.1066 91.3931 67.6071 71.8947 43.5533 71.8947Z" fill="#428DFF"/>
<path d="M212.102 118.044C210.066 118.044 208.126 116.866 207.249 114.886L186.739 68.5405C185.553 65.862 186.764 62.7295 189.442 61.5442C192.122 60.3588 195.253 61.5691 196.439 64.2476L216.949 110.593C218.134 113.271 216.924 116.404 214.245 117.589C213.547 117.898 212.819 118.044 212.102 118.044Z" fill="#FFB123"/>
<path d="M216.949 110.593L196.439 64.2477C195.255 61.5742 192.134 60.3639 189.457 61.5387L214.245 117.589C216.924 116.404 218.134 113.271 216.949 110.593Z" fill="#428DFF"/>
<path d="M187.05 38.553L182.57 28.4311C181.934 26.9933 180.742 25.8748 179.266 25.331C177.791 24.7877 176.157 24.8651 174.741 25.5475L94.4812 64.1529C91.9408 65.3752 90.6447 68.2443 91.407 70.9582L93.0429 76.7812L38.9002 113.008C36.7226 114.465 35.7901 117.2 36.6238 119.683C37.4215 122.06 39.646 123.644 42.128 123.644C42.2402 123.644 42.3535 123.641 42.4667 123.634L105.182 119.996L106 122.908C106.577 124.962 108.233 126.535 110.315 127.004C110.739 127.1 111.167 127.146 111.592 127.146C113.25 127.146 114.853 126.435 115.969 125.155L186.115 44.7213C187.598 43.021 187.963 40.6159 187.05 38.553ZM63.0872 110.802L96.3475 88.547L101.965 108.547L63.0872 110.802ZM114.277 109.421L105.366 77.6952L103.909 72.5092L174.373 38.6154L174.93 39.8736L114.277 109.421Z" fill="#428DFF"/>
<path d="M187.05 38.553L182.57 28.4311C181.934 26.9933 180.742 25.8748 179.266 25.331C177.791 24.7877 176.157 24.8651 174.741 25.5475L94.4812 64.1529C91.9408 65.3752 90.6447 68.2443 91.407 70.9582L93.0429 76.7812L38.9002 113.008C36.7226 114.465 35.7901 117.2 36.6238 119.683C37.4215 122.06 39.646 123.644 42.128 123.644C42.2402 123.644 42.3535 123.641 42.4667 123.634L105.182 119.996L106 122.908C106.577 124.962 108.233 126.535 110.315 127.004C110.739 127.1 111.167 127.146 111.592 127.146C113.25 127.146 114.853 126.435 115.969 125.155L186.115 44.7213C187.598 43.021 187.963 40.6159 187.05 38.553ZM63.0872 110.802L96.3475 88.547L101.965 108.547L63.0872 110.802ZM114.277 109.421L105.366 77.6952L103.909 72.5092L174.373 38.6154L174.93 39.8736L114.277 109.421Z" fill="#428DFF"/>
<path d="M187.429 39.7428C187.347 39.3388 187.221 38.9401 187.05 38.553L184.81 33.4918L182.57 28.4311C181.934 26.9933 180.742 25.8748 179.266 25.331C178.362 24.9983 177.399 24.901 176.462 25.0302C176.194 25.0671 175.929 25.127 175.668 25.2013C175.462 25.2597 175.26 25.331 175.061 25.4123C174.954 25.4562 174.845 25.4966 174.741 25.547L161.209 32.0565L166.331 42.4832L174.373 38.6149L174.93 39.8731L168.609 47.1204L169.269 48.4639C170.182 50.5268 169.818 52.9319 168.335 54.6321L110.468 120.987C110.417 120.977 110.365 120.973 110.315 120.962C108.233 120.492 106.577 118.92 106 116.866L105.182 113.954L42.4667 117.591C42.3535 117.598 42.2403 117.601 42.128 117.601C40.0826 117.601 38.2142 116.524 37.1731 114.815C37.0673 114.989 36.972 115.168 36.8852 115.351C36.8807 115.36 36.8762 115.369 36.8722 115.378C36.7001 115.746 36.5674 116.13 36.4756 116.526C36.4711 116.544 36.4676 116.564 36.4636 116.583C36.4252 116.755 36.3958 116.929 36.3733 117.104C36.3694 117.136 36.3644 117.169 36.3609 117.201C36.318 117.586 36.314 117.977 36.3499 118.368C36.3544 118.417 36.3614 118.466 36.3669 118.515C36.3843 118.662 36.4073 118.808 36.4362 118.955C36.4467 119.008 36.4567 119.062 36.4686 119.116C36.5115 119.306 36.5614 119.496 36.6243 119.684C36.774 120.129 36.9735 120.547 37.2155 120.932C37.2963 121.06 37.3816 121.185 37.4714 121.305C37.8665 121.836 38.3499 122.288 38.8922 122.653C39.8301 123.283 40.9486 123.644 42.128 123.644C42.1834 123.644 42.2393 123.641 42.2946 123.639C42.352 123.638 42.4089 123.638 42.4663 123.634L105.181 119.997L105.59 121.453L105.999 122.908C105.999 122.909 106 122.909 106 122.91C106.063 123.136 106.145 123.353 106.234 123.566C106.265 123.641 106.299 123.713 106.333 123.785C106.397 123.922 106.467 124.055 106.541 124.186C106.586 124.266 106.63 124.348 106.679 124.425C106.788 124.599 106.905 124.767 107.031 124.927C107.083 124.993 107.139 125.053 107.193 125.116C107.246 125.178 107.303 125.236 107.358 125.295C107.4 125.339 107.439 125.386 107.482 125.43C107.543 125.49 107.601 125.551 107.664 125.609C107.811 125.744 107.965 125.872 108.125 125.992C108.183 126.035 108.242 126.074 108.302 126.115C108.447 126.215 108.595 126.309 108.749 126.395C108.793 126.42 108.836 126.447 108.881 126.471C108.997 126.533 109.121 126.582 109.243 126.635C109.324 126.671 109.402 126.713 109.485 126.745C109.537 126.766 109.589 126.784 109.642 126.803C109.861 126.881 110.084 126.952 110.315 127.004C110.739 127.099 111.167 127.146 111.592 127.146C111.799 127.146 112.006 127.135 112.21 127.113C112.576 127.074 112.935 126.995 113.284 126.888C114.306 126.577 115.242 125.989 115.969 125.155L186.115 44.7207C187.32 43.3398 187.786 41.4934 187.429 39.7428Z" fill="#CAD9FC"/>
<path d="M84.5249 40.9077L110.146 30.9644C111.473 30.4491 112.203 29.0208 111.842 27.6433L111.691 27.0656C111.323 25.6617 109.945 24.7712 108.514 25.0132L77.1419 30.3164C76.0443 30.5019 75.1608 31.3196 74.8909 32.3997L73.5604 37.7298C73.1149 39.5148 74.4818 41.2375 76.3217 41.2091L83.5546 41.0968C83.8868 41.0918 84.2151 41.0275 84.5249 40.9077Z" fill="#428DFF"/>
<path d="M112.274 132.611C119.986 132.611 126.237 126.36 126.237 118.648C126.237 110.937 119.986 104.685 112.274 104.685C104.563 104.685 98.3116 110.937 98.3116 118.648C98.3116 126.36 104.563 132.611 112.274 132.611Z" fill="#FFB123"/>
<path d="M112.274 135.426C121.54 135.426 129.052 127.914 129.052 118.648C129.052 109.382 121.54 101.871 112.274 101.871C103.008 101.871 95.4969 109.382 95.4969 118.648C95.4969 127.914 103.008 135.426 112.274 135.426Z" fill="#FFB123"/>
<path d="M124.138 130.51C130.69 123.958 130.69 113.336 124.138 106.784L100.411 130.51C106.963 137.062 117.586 137.062 124.138 130.51Z" fill="#428DFF"/>
<path d="M131.518 137.375C130.681 137.375 129.863 137.098 129.194 136.579L109.951 121.639C108.298 120.355 107.999 117.976 109.282 116.323C110.565 114.67 112.944 114.37 114.597 115.654L130.808 128.239L133.356 124.863C134.616 123.194 136.992 122.862 138.663 124.123C140.332 125.383 140.664 127.758 139.403 129.428L134.541 135.868C133.93 136.678 133.021 137.208 132.016 137.341C131.85 137.364 131.684 137.375 131.518 137.375Z" fill="#428DFF"/>
</g>
<defs>
<clipPath id="clip0_29_133">
<rect width="256" height="160" fill="white"/>
</clipPath>
</defs>
</svg>
