<svg width="64" height="64" viewBox="0 0 64 64" fill="none" xmlns="http://www.w3.org/2000/svg">
<path d="M25.4316 35.579H18.6526C17.5579 35.579 17.221 35.1579 17.221 34.1474C17.221 31.4105 17.221 28.5895 17.221 25.8526C17.221 24.7579 17.6421 24.3369 18.6526 24.3369H25.4316V18.3158C25.3474 15.6631 25.979 12.9684 27.2843 10.5684C28.6736 8.16844 30.8631 6.40002 33.3895 5.5158C35.1158 4.88423 36.8 4.63159 38.6105 4.63159H45.3053C46.2736 4.63159 46.6948 5.05265 46.6948 6.02107V13.8105C46.6948 14.779 46.2736 15.2 45.3053 15.2C43.4526 15.2 41.6 15.2 39.7474 15.2843C37.8948 15.3684 36.9264 16.1684 36.9264 18.1053C36.8421 20.1684 36.9264 22.1474 36.9264 24.2526H44.8C45.8948 24.2526 46.3158 24.6738 46.3158 25.7684V34.0631C46.3158 35.1579 45.979 35.579 44.8 35.579H37.0105V57.8526C37.0105 59.0316 36.5895 59.4105 35.4526 59.4105H26.9053C25.8948 59.4105 25.4736 58.9895 25.4736 57.979V35.579H25.4316Z" fill="url(#paint0_linear_29_24)"/>
<defs>
<linearGradient id="paint0_linear_29_24" x1="20.7376" y1="16.64" x2="49.9191" y2="45.8211" gradientUnits="userSpaceOnUse">
<stop stop-color="#42A5F5"/>
<stop offset="1" stop-color="#1565C0"/>
</linearGradient>
</defs>
</svg>
