<svg width="64" height="64" viewBox="0 0 64 64" fill="none" xmlns="http://www.w3.org/2000/svg">
<g clip-path="url(#clip0_28_3)">
<path d="M32 0C14.6529 0 0 13.3018 0 30.125C0 39.1406 4.3501 47.3857 11.375 53V62.125C11.375 62.7784 11.7148 63.3842 12.2725 63.7251C12.8238 64.0615 13.5176 64.0947 14.1055 63.7935L23.4121 59.0235C26.1962 59.7544 29.0815 60.125 32 60.125C49.645 60.125 64 46.667 64 30.125C64 13.2935 49.3379 0 32 0ZM32 56.375C29.1783 56.375 26.3931 55.9864 23.7226 55.2202C23.2646 55.0884 22.7739 55.1363 22.3506 55.3535L15.125 59.0571V52.0815C15.125 51.4918 14.8476 50.9365 14.3765 50.5825C7.62305 45.5074 3.75 38.0507 3.75 30.125C3.75 15.5815 16.4229 3.75 32 3.75C47.5771 3.75 60.25 15.5815 60.25 30.125C60.25 44.5991 47.5771 56.375 32 56.375Z" fill="#0C132C"/>
<path d="M49.9116 19.0733L36.1201 25.9688L29.5757 19.4244C29.1987 19.0474 28.6792 18.8481 28.1465 18.8779C27.6137 18.9078 27.1191 19.1626 26.7861 19.5791L11.7861 38.3291C11.2358 39.0166 11.2383 39.9941 11.792 40.6793C12.3457 41.3638 13.3012 41.5708 14.0889 41.1773L27.8799 34.2818L34.4244 40.8261C34.8012 41.2031 35.3204 41.4019 35.854 41.3721C36.3862 41.3428 36.8809 41.0879 37.2144 40.6714L52.2144 21.9214C52.7641 21.2339 52.7618 20.2559 52.208 19.5713C51.6548 18.8868 50.6992 18.6793 49.9116 19.0733ZM35.5947 36.6929L29.5757 30.6744C29.0049 30.1035 28.1332 29.9619 27.4116 30.3228L20.0469 34.0049L28.4052 23.5571L34.4244 29.5756C34.9946 30.1465 35.8667 30.2881 36.5884 29.9273L43.9531 26.2451L35.5947 36.6929Z" fill="#6E7FFC"/>
</g>
<defs>
<clipPath id="clip0_28_3">
<rect width="64" height="64" fill="white"/>
</clipPath>
</defs>
</svg>
