<svg width="256" height="225" viewBox="0 0 256 225" fill="none" xmlns="http://www.w3.org/2000/svg">
<g clip-path="url(#clip0_29_191)">
<path d="M128.074 112.138C122.927 107.586 118.587 103.545 115.524 100.482L101.018 85.9327L100.975 85.8902C100.295 86.1879 96.4234 82.6145 94.7218 81.7637L103.655 90.7399C106.718 93.8028 111.058 97.8442 116.205 102.396L133.392 116.86C134.71 117.924 136.072 118.987 137.433 120.008L128.074 112.138ZM219.537 168.377C221.196 166.705 221.196 164.008 219.537 162.337L213.497 156.338C212.295 155.127 210.482 154.758 208.902 155.402C208.96 156.605 208.513 157.777 207.668 158.635L203.882 162.379C210.014 172.881 209.618 185.96 202.861 196.072C201.691 197.829 200.352 199.468 198.862 200.964C198.354 201.466 197.814 201.935 197.246 202.368C196.233 203.327 195.136 204.196 193.97 204.963C183.859 211.719 170.779 212.116 160.278 205.984L156.534 209.77C156.156 210.18 155.691 210.5 155.173 210.706C155.215 211.743 155.639 212.728 156.364 213.471L162.362 219.512C164.034 221.171 166.731 221.171 168.403 219.512L172.147 215.726C182.648 221.857 195.728 221.461 205.839 214.705C207.005 213.938 208.101 213.069 209.115 212.11C209.683 211.677 210.223 211.208 210.731 210.706C212.221 209.21 213.56 207.571 214.73 205.814C221.487 195.702 221.883 182.623 215.751 172.121L219.537 168.377Z" fill="#CAD9FC"/>
<path d="M207.669 158.636C208.513 157.777 208.96 156.605 208.902 155.402C208.371 155.608 207.892 155.927 207.498 156.338L203.585 160.252C200.862 158.689 197.901 157.583 194.821 156.976C182.867 154.424 162.788 140.556 145.261 126.602L137.433 120.008C136.072 118.987 134.711 117.924 133.392 116.86L116.205 102.396C111.058 97.8443 106.718 93.8029 103.656 90.7399L94.7219 81.7638H94.6793C94.4969 81.626 94.268 81.5649 94.0412 81.5936C93.524 81.8061 93.0259 82.0622 92.5523 82.3593C92.1694 82.572 91.8291 82.7847 91.4462 82.9974C90.8932 83.3803 90.3401 83.7632 89.8296 84.1461L89.702 84.2737C89.5388 84.3769 89.3825 84.4905 89.2341 84.614C89.1278 84.6746 89.028 84.7459 88.9363 84.8267C87.7894 85.8035 86.7224 86.8704 85.7457 88.0173C85.6606 88.1024 85.6181 88.1875 85.533 88.2725C85.4054 88.4427 85.3203 88.6129 85.1927 88.783C85.1501 88.783 85.1076 88.8681 85.065 88.9107C84.6822 89.4212 84.2993 89.9742 83.9164 90.5272C83.7037 90.9101 83.491 91.2504 83.2783 91.6333C82.9781 92.0986 82.7353 92.5986 82.5551 93.1222C82.1297 93.9731 86.2562 100.142 85.9159 100.95V100.992H85.9584L100.507 115.499C103.273 118.264 106.889 122.093 110.887 126.602L128.074 147.107C141.56 164.208 154.535 183.267 157.002 194.796C157.628 197.87 158.733 200.828 160.278 203.559L156.364 207.473C155.497 208.314 155.058 209.503 155.173 210.706C155.691 210.5 156.156 210.18 156.534 209.77L160.278 205.984C170.779 212.116 183.859 211.719 193.97 204.963C195.136 204.196 196.233 203.328 197.246 202.368C197.814 201.935 198.354 201.466 198.863 200.964C200.352 199.468 201.692 197.829 202.861 196.072C209.618 185.961 210.014 172.881 203.882 162.379L207.669 158.636ZM198.692 198.667C192.865 204.452 183.462 204.452 177.635 198.667C173.086 194.138 171.96 187.2 174.842 181.465C177.724 175.729 183.963 172.493 190.312 173.44C193.49 173.862 196.438 175.329 198.692 177.609C204.477 183.436 204.477 192.839 198.692 198.667Z" fill="#E8EDFC"/>
<path d="M172.87 91.6333C172.657 91.2504 172.444 90.9101 172.232 90.5272C171.849 89.9742 171.466 89.4212 171.083 88.9107C171.041 88.8681 170.998 88.783 170.956 88.783C170.828 88.6129 170.743 88.4427 170.615 88.2725C170.53 88.1875 170.488 88.1024 170.402 88.0173C169.426 86.8704 168.359 85.8035 167.212 84.8267C167.12 84.7459 167.02 84.6746 166.914 84.614C166.766 84.4905 166.609 84.3769 166.446 84.2737L166.319 84.1461C165.808 83.7632 165.255 83.3803 164.702 82.9974C164.319 82.7847 163.979 82.572 163.596 82.3593C163.122 82.0622 162.624 81.8061 162.107 81.5936C161.767 81.4234 160.618 82.2317 159.342 83.1676C159.384 83.2101 159.384 83.2527 159.427 83.2952C159.469 83.3378 159.512 83.3803 159.554 83.4229C159.937 83.9333 160.32 84.4864 160.703 85.0394C160.916 85.4223 161.129 85.7626 161.341 86.1455C161.641 86.6108 161.884 87.1108 162.064 87.6344C162.49 88.4852 158.363 94.6537 158.704 95.462V95.5045H158.661L144.112 110.011C129.308 124.815 91.9992 168.845 87.6174 189.308C86.9917 192.383 85.8863 195.34 84.3418 198.071L88.2556 201.985C89.905 203.644 89.905 206.324 88.2556 207.983L82.2573 214.024C80.5854 215.683 77.8883 215.683 76.2164 214.024L72.4728 210.238C65.362 214.404 56.9041 215.626 48.905 213.641C49.3414 214.036 49.8111 214.392 50.3089 214.705C60.4201 221.461 73.4997 221.858 84.0015 215.726L87.7451 219.512C89.417 221.171 92.114 221.171 93.7859 219.512L99.7842 213.471C101.434 211.812 101.434 209.132 99.7842 207.473L95.8704 203.559C97.415 200.828 98.5204 197.87 99.1461 194.796C103.528 174.333 140.836 130.303 155.641 115.499L170.19 100.992H170.232V100.95C169.892 100.142 174.018 93.9731 173.593 93.1222C173.413 92.5986 173.17 92.0986 172.87 91.6333Z" fill="#CAD9FC"/>
<path d="M161.341 86.1455C161.129 85.7626 160.916 85.4223 160.703 85.0394C160.32 84.4864 159.937 83.9333 159.555 83.4228C159.512 83.3803 159.469 83.2952 159.427 83.2952C159.384 83.2952 159.384 83.2101 159.342 83.1676C157.598 84.4864 155.641 86.1029 155.173 85.8902L155.13 85.9328L140.624 100.482C125.819 115.286 81.7894 152.595 61.3271 156.976C58.2468 157.583 55.2865 158.689 52.5636 160.252L48.6498 156.338C46.9906 154.689 44.3108 154.689 42.6516 156.338L36.6107 162.337C34.9517 164.009 34.9517 166.706 36.6107 168.377L40.3969 172.121C34.2651 182.623 34.6614 195.702 41.4179 205.814C42.5877 207.571 43.9271 209.21 45.4167 210.706C46.5114 211.762 47.6769 212.743 48.9051 213.641C56.7752 215.598 65.6663 224.957 72.7707 220.746H77.0248C78.6839 222.405 80.5982 215.683 82.2573 214.024L88.2556 207.983C89.9051 206.324 89.9051 203.644 88.2556 201.985L84.3418 198.071C85.8864 195.34 86.9918 192.383 87.6175 189.308C91.9993 168.845 129.308 124.815 144.112 110.011L158.661 95.5045H158.704V95.462C158.363 94.6537 162.49 88.4852 162.064 87.6344C161.884 87.1108 161.641 86.6108 161.341 86.1455ZM78.5137 198.667C72.6864 204.452 63.2832 204.452 57.4559 198.667L56.4349 197.518C51.3755 191.289 52.1632 182.171 58.2159 176.901C64.2686 171.632 73.4084 172.107 78.8816 177.976C84.3549 183.845 84.1922 192.996 78.5137 198.667Z" fill="#E8EDFC"/>
<path d="M120.247 81.1257L118.715 82.6572C116.798 84.5761 114.078 85.4617 111.398 85.0395C104.157 84.0563 96.8724 86.5126 91.7053 91.6797C86.5381 96.8469 84.0818 104.131 85.065 111.372C85.4872 114.052 84.6017 116.772 82.6827 118.689L81.1512 120.221C79.5554 121.819 77.3898 122.716 75.1317 122.716C72.8735 122.716 70.708 121.819 69.1121 120.221L27.0389 78.1478L27.3367 77.5948L42.9919 46.327L78.1734 26.9708L112.462 61.3015L120.247 69.0865C121.844 70.6824 122.742 72.8479 122.742 75.1061C122.742 77.3643 121.844 79.5298 120.247 81.1257Z" fill="#CAD9FC"/>
<path d="M110.675 70.7031L109.143 72.2346C107.226 74.1535 104.506 75.0391 101.826 74.6169C94.5853 73.6337 87.3007 76.09 82.1336 81.2571C76.9665 86.4243 74.5101 93.7088 75.4933 100.95C75.9155 103.63 75.03 106.349 73.111 108.267L71.5796 109.798C69.9837 111.396 67.8182 112.294 65.56 112.294C63.3018 112.294 61.1363 111.396 59.5404 109.798L27.3368 77.5948L42.9919 46.327L78.1734 26.9708L112.462 61.3015C113.863 64.5038 113.153 68.2382 110.675 70.7031Z" fill="#E8EDFC"/>
<path d="M72.1283 82.7378C78.002 82.7378 82.7636 77.9763 82.7636 72.1026C82.7636 66.2289 78.002 61.4673 72.1283 61.4673C66.2546 61.4673 61.493 66.2289 61.493 72.1026C61.493 77.9763 66.2546 82.7378 72.1283 82.7378Z" fill="#A4C2F7"/>
<path d="M250.21 57.0473L241.191 66.066L215.028 53.5164L208.902 50.581L208.519 49.8578L203.925 41.222L190.014 14.9316L199.075 5.91286C199.859 5.09589 200.942 4.63403 202.074 4.63403C203.206 4.63403 204.29 5.09589 205.073 5.91286L250.21 51.049C251.859 52.7083 251.859 55.388 250.21 57.0473Z" fill="#7FACFA"/>
<path d="M229.152 78.1053L187.036 120.221C185.44 121.819 183.275 122.716 181.017 122.716C178.758 122.716 176.593 121.819 174.997 120.221L173.465 118.689C173.078 118.308 172.723 117.895 172.402 117.456C171.242 115.654 170.773 113.493 171.083 111.372C172.67 99.6256 165.238 88.5427 153.769 85.5499H153.726C150.798 84.7854 147.746 84.6119 144.75 85.0395C142.071 85.4617 139.351 84.5761 137.433 82.6572L135.902 81.1257C135.526 80.7448 135.185 80.332 134.881 79.892C132.581 76.5125 133.01 71.9755 135.902 69.0865L177.932 27.0559L178.017 26.9708L194.226 35.8619L203.925 41.2221L209.838 44.4552L214.603 52.7933L215.028 53.5165L229.152 78.1053Z" fill="#CAD9FC"/>
<path d="M240.638 51.8999L231.619 60.9186L214.603 52.7933L208.519 49.8579L205.414 48.369L199.288 45.4337L194.353 36.1172L194.225 35.8619L203.925 41.2221L190.014 14.9317L199.075 5.91296C199.328 5.65054 199.614 5.42178 199.926 5.2323L240.638 45.9016C242.255 47.5739 242.255 50.2277 240.638 51.8999Z" fill="#A4C2F7"/>
<path d="M219.58 72.9577L177.422 115.073C176.083 116.436 174.304 117.28 172.402 117.456C171.242 115.654 170.773 113.493 171.083 111.372C172.67 99.6255 165.238 88.5426 153.769 85.5498H153.726C148.672 81.0067 141.865 78.935 135.136 79.8919H134.881C132.581 76.5124 133.01 71.9754 135.902 69.0864L177.932 27.0558L194.353 36.117L200.224 39.3502L205.414 48.3689L219.58 72.9577Z" fill="#E8EDFC"/>
<path d="M190.039 14.9317L178.009 26.9609L229.152 78.1057L241.182 66.0765L190.039 14.9317Z" fill="#7FACFA"/>
<path d="M184.02 82.7378C189.894 82.7378 194.655 77.9763 194.655 72.1026C194.655 66.2289 189.894 61.4673 184.02 61.4673C178.146 61.4673 173.385 66.2289 173.385 72.1026C173.385 77.9763 178.146 82.7378 184.02 82.7378Z" fill="#A4C2F7"/>
<path d="M66.1343 14.9317L51.5001 50.5811L14.9573 66.0661L5.9386 57.0474C4.28918 55.3881 4.28918 52.7084 5.9386 51.0491L51.0747 5.91297C52.734 4.26355 55.4138 4.26355 57.073 5.91297L66.1343 14.9317Z" fill="#A4C2F7"/>
<path d="M78.1733 26.9708L27.0388 78.1478L14.9572 66.0661L66.1341 14.9316L78.1733 26.9708Z" fill="#7FACFA"/>
<path d="M14.9573 66.0661L27.039 78.1478L69.1122 120.221C70.708 121.819 72.8736 122.716 75.1318 122.716C77.3899 122.716 79.5554 121.819 81.1513 120.221L81.5129 119.859L39.8226 78.1691L27.7197 66.0661L18.7009 57.0474C17.0515 55.3881 17.0515 52.7084 18.7009 51.0491L60.4636 9.28648L57.0603 5.91297C55.401 4.26355 52.7212 4.26355 51.062 5.91297L5.9386 51.0491C4.28918 52.7084 4.28918 55.3881 5.9386 57.0474L14.9573 66.0661Z" fill="white"/>
<path d="M52.0191 159.708L48.6498 156.338C46.9906 154.689 44.3108 154.689 42.6516 156.338L36.6107 162.337C34.9517 164.009 34.9517 166.706 36.6107 168.378L40.3969 172.121C34.2651 182.623 34.6614 195.703 41.4179 205.814C42.5877 207.571 43.9271 209.21 45.4167 210.706C46.5114 211.763 47.6769 212.743 48.9051 213.641C49.3414 214.036 49.8111 214.392 50.309 214.705C53.3323 216.72 56.6858 218.188 60.2168 219.044C64.624 221.362 68.9547 223.022 72.7707 220.746H76.6462C75.3935 220.246 74.1693 219.678 72.9791 219.044C69.4481 218.188 66.0946 216.72 63.0713 214.705C62.5735 214.392 62.1038 214.036 61.6674 213.641C60.4393 212.743 59.2738 211.763 58.1791 210.706C56.6894 209.21 55.35 207.571 54.1802 205.814C47.4238 195.703 47.0274 182.623 53.1592 172.121L49.373 168.378C47.714 166.706 47.714 164.009 49.373 162.337L52.0191 159.708Z" fill="white"/>
<path d="M54.0824 8.93339L14.9744 48.0372L8.95903 54.0525L2.94373 48.0372L8.95903 42.0219L48.0628 2.91382L54.0824 8.93339Z" fill="white"/>
<path d="M24.0014 32.9946C24.7935 33.8027 25.8775 34.2581 27.0091 34.2581C28.1407 34.2581 29.2246 33.8027 30.0168 32.9946C30.8053 32.1882 31.261 31.1143 31.293 29.9869L31.2037 29.1744C31.1465 28.8934 31.055 28.6206 30.9314 28.3619C30.8472 28.1056 30.7254 27.8633 30.5698 27.6429C30.4045 27.4101 30.224 27.1884 30.0295 26.9793C29.2236 26.19 28.1494 25.7342 27.0219 25.703C25.5891 25.6779 24.2424 26.3852 23.4499 27.5791C22.6574 28.773 22.5286 30.2887 23.1081 31.5992C23.3105 32.1189 23.6142 32.5932 24.0014 32.9946Z" fill="#428DFF"/>
<path d="M82.6615 61.5737C76.846 55.7612 67.4199 55.7628 61.6065 61.5772C55.793 67.3917 55.793 76.8178 61.6065 82.6322C67.4199 88.4467 76.846 88.4483 82.6615 82.6358C88.4696 76.814 88.4677 67.3889 82.6572 61.5694L82.6615 61.5737ZM76.6419 76.612C74.817 78.4374 72.0722 78.9837 69.6875 77.9961C67.3028 77.0085 65.7479 74.6816 65.7479 72.1005C65.7479 69.5194 67.3028 67.1924 69.6875 66.2049C72.0722 65.2173 74.817 65.7636 76.6419 67.589C79.133 70.0808 79.133 74.1201 76.6419 76.612Z" fill="#428DFF"/>
<path d="M188.155 207.26C193.227 207.273 198.093 205.257 201.67 201.662C208.146 195.201 209.155 185.065 204.079 177.455C199.004 169.845 189.259 166.881 180.806 170.377C172.353 173.873 167.548 182.855 169.33 191.827C171.113 200.799 178.986 207.261 188.134 207.26H188.155ZM180.629 180.604C184.783 176.45 191.518 176.45 195.672 180.604C199.826 184.758 199.826 191.492 195.672 195.646C191.459 199.655 184.842 199.655 180.629 195.646C178.634 193.652 177.513 190.946 177.513 188.125C177.513 185.304 178.634 182.598 180.629 180.604Z" fill="#428DFF"/>
<path d="M208.085 2.93499C206.49 1.33865 204.325 0.441772 202.068 0.441772C199.811 0.441772 197.646 1.33865 196.051 2.93499L187.028 11.9409L174.997 23.9716L132.881 66.0873C130.487 68.4808 129.142 71.7272 129.142 75.1124C129.142 78.4976 130.487 81.744 132.881 84.1375L134.434 85.6817C137.3 88.5314 141.346 89.8553 145.342 89.2509C145.361 89.2488 145.381 89.2488 145.401 89.2509L145.78 89.2084H145.848L137.595 97.4614C134.953 100.103 131.69 103.17 128.074 106.438C124.288 103.034 121.012 99.9585 118.528 97.4784L110.292 89.2084C110.437 89.2084 110.585 89.2339 110.717 89.2552C110.737 89.2531 110.757 89.2531 110.777 89.2552C114.772 89.8655 118.82 88.5425 121.684 85.6903L123.241 84.1375C128.224 79.1538 128.224 71.0752 123.241 66.0915L81.1257 23.9758L69.1206 11.9409L60.0976 2.93499C56.7305 -0.280862 51.4299 -0.280862 48.0627 2.93499L36.0321 14.9486C34.4199 16.6178 34.443 19.2711 36.0839 20.9121C37.7249 22.5531 40.3782 22.5761 42.0474 20.9639L54.0823 8.93329L60.0976 14.9486L37.5508 37.4954L15.004 60.0422L8.95892 54.0524L14.9742 48.0286L17.9819 45.0209C19.0878 43.9528 19.5313 42.3711 19.142 40.8838C18.7527 39.3964 17.5911 38.2348 16.1037 37.8455C14.6164 37.4562 13.0347 37.8997 11.9666 39.0056L8.95892 42.0218L2.94361 48.0286C-0.37785 51.351 -0.37785 56.7368 2.94361 60.0592L11.9666 69.0865L66.1129 123.241C68.5064 125.635 71.7529 126.98 75.138 126.98C78.5232 126.98 81.7697 125.635 84.1631 123.241L85.7116 121.689C88.3944 118.969 89.71 115.186 89.2936 111.389C89.2936 111.347 89.3191 111.313 89.3191 111.27C89.3162 111.062 89.3005 110.855 89.2723 110.649C89.2723 110.522 89.251 110.407 89.234 110.283L97.4955 118.523C99.6481 120.676 102.133 123.292 104.685 126.092C88.1833 138.973 70.6521 150.646 60.4422 152.812C58.0404 153.343 55.7017 154.127 53.4654 155.151L51.6532 153.339C50.0575 151.743 47.8929 150.846 45.6358 150.846C43.3786 150.846 41.214 151.743 39.6183 153.339L33.6328 159.337C32.0364 160.933 31.1396 163.098 31.1396 165.355C31.1396 167.612 32.0364 169.777 33.6328 171.372L35.2366 172.972C29.8867 184.358 30.8924 197.714 37.8869 208.17C40.5733 212.134 43.9873 215.553 47.9479 218.244C58.3935 225.303 71.7912 226.317 83.1804 220.911L84.7715 222.507C86.3672 224.103 88.5318 225 90.7889 225C93.046 225 95.2106 224.103 96.8063 222.507L102.8 216.491C106.122 213.169 106.122 207.783 102.8 204.461L100.988 202.644C102.009 200.415 102.791 198.083 103.319 195.689C105.378 186.032 115.984 169.769 128.049 154.041C142.228 172.508 151.021 187.223 152.837 195.663C153.363 198.065 154.145 200.404 155.169 202.64L153.352 204.457C151.756 206.052 150.859 208.217 150.859 210.474C150.859 212.731 151.756 214.896 153.352 216.491L159.367 222.507C160.963 224.103 163.128 225 165.385 225C167.642 225 169.807 224.103 171.402 222.507L172.993 220.916C184.377 226.313 197.764 225.302 208.209 218.257C210.195 216.916 212.047 215.388 213.739 213.692C215.422 212.012 216.937 210.171 218.261 208.196C225.267 197.736 226.278 184.37 220.924 172.976L222.528 171.372C224.124 169.777 225.021 167.612 225.021 165.355C225.021 163.098 224.124 160.933 222.528 159.337L216.517 153.322C213.195 150.001 207.809 150.001 204.486 153.322L202.67 155.139C200.444 154.104 198.108 153.325 195.706 152.816C186.828 150.923 171.177 141.406 151.463 126.049C154.062 123.22 156.487 120.676 158.648 118.515L166.901 110.262C166.88 110.419 166.876 110.556 166.855 110.726C166.829 110.945 166.816 111.165 166.816 111.385C166.816 111.423 166.838 111.457 166.838 111.496C166.449 115.264 167.764 119.008 170.424 121.706L171.972 123.258C174.366 125.652 177.612 126.997 180.997 126.997C184.383 126.997 187.629 125.652 190.022 123.258L244.182 69.095L253.205 60.0677C256.526 56.7453 256.526 51.3596 253.205 48.0371L208.085 2.93499ZM235.159 66.1086L229.139 72.1239L184.02 26.9792L190.035 20.9639L212.582 43.5107L235.159 66.1086ZM43.5534 43.5618L66.1002 21.015L72.1155 27.0303L27.0091 72.1026L20.9896 66.0873L43.5534 43.5618ZM79.7133 115.712L78.1648 117.264C77.3669 118.063 76.2841 118.512 75.155 118.512C74.026 118.512 72.9432 118.063 72.1453 117.264L33.0244 78.1179L78.1436 32.9946L117.252 72.1026C118.912 73.7638 118.912 76.4567 117.252 78.1179L115.695 79.6664C114.71 80.6152 113.335 81.044 111.985 80.8235C111.896 80.8235 111.811 80.8235 111.721 80.8023C110.947 80.7044 110.164 80.6108 109.096 80.5725H108.931C108.352 80.5725 107.778 80.5726 107.199 80.6151C106.952 80.6151 106.701 80.6151 106.463 80.6151H106.182C104.154 80.7592 102.147 81.1302 100.201 81.7212C100.001 81.7807 99.8353 81.802 99.6311 81.8658L99.5417 81.8998C99.4864 81.9211 99.4354 81.9296 99.3843 81.9509C98.7207 82.1764 98.0826 82.4571 97.436 82.7336C97.253 82.8102 97.0446 82.8783 96.8702 82.9549L96.7936 82.9889L96.3682 83.1888C95.8991 83.3951 95.4443 83.6325 95.0069 83.8993L94.0327 84.4566C93.9178 84.5289 93.7987 84.5884 93.6838 84.6608L93.5392 84.7416C92.9266 85.167 92.263 85.5924 91.6972 86.0178L91.5866 86.1157C91.31 86.3241 91.042 86.5411 90.774 86.7538C90.0522 87.324 89.3647 87.9362 88.715 88.5873C88.0638 89.2396 87.4502 89.9285 86.8773 90.6505C86.6603 90.9143 86.4518 91.1823 86.2476 91.4503L86.1498 91.5694C85.7839 92.0459 85.3968 92.6117 84.9374 93.3094C84.848 93.4498 84.7459 93.5859 84.6566 93.7348L84.1546 94.6239C83.9887 94.8876 83.8994 95.1259 83.759 95.3896C83.103 96.6205 82.544 97.9006 82.0871 99.2183C82.0573 99.2821 82.0446 99.3502 82.0191 99.414C81.9935 99.4778 82.0191 99.5076 81.9808 99.5501L81.9212 99.7033C81.8446 99.9585 81.7978 100.231 81.7255 100.49C81.4609 101.404 81.2451 102.331 81.0789 103.268C80.9896 103.745 80.9258 104.174 80.8875 104.544C80.8151 105.136 80.7556 105.727 80.7173 106.323V106.369C80.6499 107.011 80.6286 107.656 80.6535 108.301C80.6535 108.492 80.6535 108.679 80.6535 108.871V109.322C80.6833 110.037 80.7683 110.751 80.8662 111.521V111.555C80.8662 111.674 80.8662 111.793 80.8917 111.913C81.1192 113.284 80.6746 114.681 79.6963 115.669L79.7133 115.712ZM103.536 112.525L90.9655 99.9926C91.5304 98.8207 92.2147 97.7102 93.0074 96.6786C93.0755 96.5893 93.1478 96.517 93.1989 96.4404C93.2499 96.3638 93.3988 96.1979 93.4881 96.083L93.5307 96.0277C93.9093 95.5768 94.2922 95.1259 94.7133 94.7005C95.1345 94.2751 95.5641 93.9092 96.0193 93.5348C96.1869 93.4142 96.3409 93.2758 96.4788 93.1222C96.5979 93.0414 96.7 92.9478 96.8106 92.8584C97.7579 92.1435 98.7706 91.5196 99.8353 90.9951C99.8863 90.9951 99.9246 90.9483 99.9799 90.9228L112.517 103.494C114.946 105.923 118.047 108.867 121.663 112.117C118.392 114.942 114.933 117.847 111.351 120.757C108.577 117.702 105.863 114.839 103.511 112.487L103.536 112.525ZM194.013 161.15C196.639 161.673 199.163 162.618 201.487 163.949C201.613 164.009 201.742 164.062 201.874 164.106C201.96 164.145 202.04 164.179 202.125 164.208C203.061 164.606 204.117 164.606 205.052 164.208C205.137 164.179 205.218 164.145 205.303 164.106C205.797 163.898 206.247 163.596 206.626 163.217L210.506 159.337L216.521 165.353L212.761 169.113C212.684 169.194 212.659 169.296 212.586 169.377C212.403 169.6 212.244 169.841 212.11 170.096C211.821 170.545 211.652 171.061 211.621 171.594C211.576 171.862 211.559 172.134 211.57 172.406C211.596 172.664 211.646 172.919 211.718 173.168C211.783 173.453 211.881 173.73 212.008 173.993C212.055 174.091 212.055 174.197 212.11 174.291C217.355 183.4 217.005 194.691 211.204 203.457C210.504 204.48 209.735 205.453 208.902 206.371C208.864 206.413 208.809 206.435 208.77 206.482C208.462 206.876 208.13 207.251 207.775 207.605L207.711 207.677L207.626 207.753C207.27 208.104 206.897 208.436 206.507 208.749C206.46 208.783 206.443 208.834 206.397 208.872C205.473 209.711 204.494 210.486 203.465 211.191C194.701 216.977 183.421 217.321 174.321 212.08C174.227 212.025 174.121 212.025 174.023 211.978C173.761 211.851 173.486 211.753 173.202 211.689C172.95 211.614 172.693 211.564 172.432 211.54C172.164 211.53 171.896 211.545 171.632 211.586C171.362 211.611 171.095 211.664 170.836 211.744C170.324 211.945 169.842 212.219 169.407 212.556C169.326 212.629 169.22 212.654 169.143 212.731L165.383 216.491L159.367 210.476L163.277 206.567C163.336 206.503 163.358 206.418 163.417 206.354C163.629 206.108 163.809 205.836 163.953 205.546C164.068 205.352 164.167 205.15 164.251 204.942C164.343 204.645 164.403 204.34 164.43 204.031C164.53 203.514 164.489 202.979 164.311 202.483C164.255 202.228 164.174 201.98 164.068 201.742C164.026 201.649 164.026 201.547 163.975 201.457C162.649 199.103 161.7 196.555 161.163 193.906C158.482 181.378 145.065 162.043 133.481 147.111C137.629 141.934 141.802 136.969 145.78 132.426C161.256 144.537 181.14 158.406 194.013 161.15ZM152.646 112.5C150.021 115.12 146.316 119.077 142.066 123.841C142.028 123.888 141.972 123.905 141.934 123.956C141.896 124.007 141.908 124.016 141.887 124.045C124.871 143.189 98.8653 175.763 94.9941 193.936C94.4523 196.576 93.5022 199.115 92.1779 201.462C92.1311 201.547 92.1353 201.636 92.0928 201.721C91.9717 201.994 91.8805 202.279 91.8205 202.572C91.6551 203.079 91.6258 203.62 91.7354 204.142C91.7624 204.409 91.8151 204.672 91.8929 204.929C92.1093 205.435 92.3864 205.914 92.7181 206.354C92.782 206.422 92.8032 206.516 92.8713 206.584L96.7851 210.493L90.7655 216.491L87.0091 212.731C86.9283 212.654 86.8262 212.629 86.7454 212.556C86.3083 212.218 85.8257 211.943 85.3117 211.74C85.0573 211.666 84.7967 211.616 84.5332 211.591C84.2634 211.546 83.9897 211.529 83.7164 211.54C83.46 211.566 83.2066 211.616 82.9592 211.689C82.6652 211.751 82.3797 211.848 82.1084 211.978C82.0105 212.025 81.9042 212.025 81.8106 212.08C72.7038 217.327 61.4139 216.978 52.6487 211.178C51.6278 210.479 50.6556 209.712 49.7388 208.881C49.6921 208.843 49.6708 208.783 49.6197 208.74C48.7787 208.081 48.0203 207.323 47.3608 206.482C47.3225 206.435 47.2672 206.418 47.2289 206.371C46.387 205.448 45.6121 204.465 44.9104 203.431C39.1184 194.67 38.7742 183.389 44.0213 174.291C44.0766 174.193 44.0766 174.086 44.1277 173.989C44.2477 173.729 44.3417 173.458 44.4084 173.18C44.5945 172.398 44.5769 171.58 44.3574 170.807C44.2706 170.561 44.1579 170.326 44.0213 170.105C43.8877 169.844 43.7265 169.599 43.5406 169.373C43.4683 169.292 43.4428 169.19 43.3662 169.113L39.6056 165.353L45.6251 159.337L49.5304 163.247C49.893 163.595 50.3152 163.874 50.7769 164.072C50.8905 164.127 51.0069 164.175 51.1257 164.217C51.576 164.388 52.0523 164.48 52.5338 164.489C53.0151 164.478 53.4911 164.386 53.9419 164.217C54.0578 164.176 54.1714 164.129 54.2822 164.077C54.3928 164.025 54.512 164.004 54.6226 163.94C56.9784 162.614 59.5257 161.661 62.1736 161.116C75.2678 158.329 95.8747 144.023 113.529 129.869C113.576 129.831 113.631 129.818 113.678 129.78C113.725 129.742 113.712 129.725 113.733 129.703C120.115 124.564 126.104 119.493 131.209 114.967C136.425 110.343 140.764 106.293 143.546 103.481L156.151 90.9186C157.391 91.5124 158.562 92.2399 159.644 93.0882C159.776 93.203 159.912 93.3264 160.069 93.437L160.129 93.4838C160.58 93.8624 161.026 94.241 161.452 94.6622C161.877 95.0833 162.256 95.5385 162.634 95.9895L162.669 96.032C162.778 96.1807 162.896 96.3228 163.022 96.4574L163.09 96.5553L162.988 96.4574C163.051 96.551 163.153 96.6659 163.247 96.7807C163.583 97.2061 163.919 97.6741 164.209 98.1463C164.534 98.6779 164.833 99.226 165.102 99.7884C165.123 99.8352 165.149 99.8777 165.174 99.9288L152.646 112.5ZM184.02 117.226C183.222 118.025 182.139 118.474 181.01 118.474C179.881 118.474 178.798 118.025 178 117.226L176.452 115.673C175.502 114.687 175.075 113.31 175.299 111.959C175.299 111.87 175.299 111.776 175.32 111.683C175.418 110.913 175.512 110.134 175.55 109.071V108.913C175.571 108.195 175.55 107.48 175.499 106.786C175.499 106.672 175.499 106.552 175.499 106.438V106.301C175.363 104.17 174.976 102.063 174.346 100.022C174.304 99.8735 174.287 99.7543 174.24 99.5969L174.214 99.5331C173.942 98.7121 173.61 97.9123 173.261 97.1211C173.219 97.0275 173.185 96.9169 173.146 96.8275V96.7892C173.07 96.6276 173.002 96.4617 172.925 96.3C172.721 95.837 172.486 95.388 172.223 94.9557L171.7 94.0538C171.615 93.9092 171.538 93.7603 171.449 93.6284L171.381 93.5093C170.956 92.8925 170.53 92.2331 170.079 91.663L169.99 91.5567C169.781 91.2802 169.564 91.0121 169.352 90.7441C168.779 90.0221 168.165 89.3332 167.514 88.6809C166.658 87.841 165.75 87.0553 164.796 86.3284L164.749 86.2901C164.676 86.2305 164.604 86.1667 164.532 86.1114C164.272 85.9115 163.987 85.686 163.681 85.4946C163.375 85.3031 163.136 85.1202 162.86 84.9415C162.686 84.8267 162.545 84.7288 162.345 84.6012L161.494 84.129C160.984 83.8397 160.461 83.576 159.933 83.3207C159.784 83.2526 159.614 83.142 159.474 83.0825C159.401 83.0527 159.316 83.0272 159.244 82.9931C158.458 82.6386 157.656 82.3238 156.836 82.0487C156.683 81.9934 156.56 81.9339 156.411 81.8786L156.279 81.8445C155.046 81.4663 153.788 81.1749 152.514 80.9724C152.297 80.9341 152.089 80.9086 151.906 80.8831C151.195 80.7853 150.48 80.7129 149.779 80.6704C149.315 80.6279 148.864 80.6108 148.443 80.6066C148.336 80.6066 148.23 80.6066 148.124 80.6066C148.017 80.6066 147.945 80.6066 147.86 80.6066H146.809C146.077 80.6406 145.346 80.7214 144.618 80.8193H144.555C144.448 80.8193 144.342 80.8193 144.231 80.8406C142.88 81.0604 141.504 80.6317 140.517 79.6834L138.969 78.1349C137.308 76.4737 137.308 73.7809 138.969 72.1196L178.077 33.0116L223.124 78.1179L184.02 117.226ZM241.174 60.0677L218.627 37.5209L196.08 14.9741L202.1 8.95456L247.189 54.0524L241.174 60.0677Z" fill="#428DFF"/>
<path d="M173.491 61.5694C167.677 67.3842 167.677 76.8114 173.492 82.6258C179.306 88.4402 188.734 88.4402 194.548 82.6258C200.363 76.8114 200.363 67.3842 194.549 61.5694C188.727 55.7664 179.307 55.7683 173.487 61.5736L173.491 61.5694ZM188.529 76.6162C186.037 79.107 181.997 79.1061 179.506 76.6142C177.015 74.1223 177.015 70.0828 179.506 67.5909C181.997 65.099 186.037 65.0981 188.529 67.5889C189.727 68.7858 190.4 70.4095 190.4 72.1026C190.4 73.7957 189.727 75.4194 188.529 76.6162Z" fill="#428DFF"/>
<path d="M54.478 174.588C47.0021 182.064 47.0021 194.185 54.4781 201.661C61.9541 209.137 74.0751 209.137 81.5511 201.661C89.0271 194.185 89.0271 182.064 81.5512 174.588C77.9779 170.967 73.1024 168.928 68.0146 168.928C62.9268 168.928 58.0513 170.967 54.478 174.588ZM75.5359 195.646C71.3227 199.655 64.7065 199.655 60.4933 195.646C56.3408 191.493 56.3414 184.759 60.4946 180.606C64.6479 176.453 71.3813 176.453 75.5345 180.606C79.6878 184.759 79.6884 191.493 75.5359 195.646Z" fill="#428DFF"/>
</g>
<defs>
<clipPath id="clip0_29_191">
<rect width="256" height="225" fill="white"/>
</clipPath>
</defs>
</svg>
