<svg width="64" height="64" viewBox="0 0 64 64" fill="none" xmlns="http://www.w3.org/2000/svg">
<g clip-path="url(#clip0_28_6)">
<path d="M61.3334 42.6666C60.6261 42.6666 59.9478 42.9476 59.4478 43.4478C58.9476 43.9479 58.6666 44.6261 58.6666 45.3334V50.6666C58.6666 52.7884 57.8238 54.8233 56.3235 56.3235C54.8233 57.8239 52.7884 58.6666 50.6666 58.6666H45.3334C44.6261 58.6666 43.9478 58.9476 43.4478 59.4478C42.9476 59.9479 42.6666 60.6261 42.6666 61.3334C42.6666 62.0406 42.9476 62.7189 43.4478 63.219C43.9478 63.7191 44.6261 64 45.3334 64H50.6666C54.2016 63.9957 57.5905 62.5896 60.0901 60.0901C62.5896 57.5905 63.9957 54.2016 64 50.6666V45.3334C64 44.6261 63.719 43.9479 63.219 43.4478C62.7189 42.9476 62.0406 42.6666 61.3334 42.6666Z" fill="#27C9DD"/>
<path d="M2.66666 21.3334C3.37391 21.3334 4.05219 21.0524 4.55229 20.5522C5.05239 20.0522 5.33334 19.3739 5.33334 18.6666V13.3334C5.33334 11.2116 6.17619 9.17678 7.67648 7.67648C9.17678 6.17619 11.2116 5.33334 13.3334 5.33334H18.6666C19.3739 5.33334 20.0522 5.05239 20.5522 4.55229C21.0524 4.05219 21.3334 3.37391 21.3334 2.66666C21.3334 1.95942 21.0524 1.28115 20.5522 0.781049C20.0522 0.280951 19.3739 0 18.6666 0H13.3334C9.79841 0.00423429 6.40949 1.41035 3.90992 3.90992C1.41035 6.40949 0.00423429 9.79841 0 13.3334V18.6666C0 19.3739 0.280951 20.0522 0.781049 20.5522C1.28115 21.0524 1.95942 21.3334 2.66666 21.3334Z" fill="#27C9DD"/>
<path d="M18.6666 58.6666H13.3334C11.2116 58.6666 9.17678 57.8239 7.67648 56.3235C6.17619 54.8233 5.33334 52.7884 5.33334 50.6666V45.3334C5.33334 44.6261 5.05239 43.9479 4.55229 43.4478C4.05219 42.9476 3.37391 42.6666 2.66666 42.6666C1.95942 42.6666 1.28115 42.9476 0.781049 43.4478C0.280951 43.9479 0 44.6261 0 45.3334V50.6666C0.00423429 54.2016 1.41035 57.5905 3.90992 60.0901C6.40949 62.5896 9.79841 63.9957 13.3334 64H18.6666C19.3739 64 20.0522 63.7191 20.5522 63.219C21.0524 62.7189 21.3334 62.0406 21.3334 61.3334C21.3334 60.6261 21.0524 59.9479 20.5522 59.4478C20.0522 58.9476 19.3739 58.6666 18.6666 58.6666Z" fill="#27C9DD"/>
<path d="M50.6666 0H45.3334C44.6261 0 43.9478 0.280951 43.4478 0.781049C42.9476 1.28115 42.6666 1.95942 42.6666 2.66666C42.6666 3.37391 42.9476 4.05219 43.4478 4.55229C43.9478 5.05239 44.6261 5.33334 45.3334 5.33334H50.6666C52.7884 5.33334 54.8233 6.17619 56.3235 7.67648C57.8238 9.17678 58.6666 11.2116 58.6666 13.3334V18.6666C58.6666 19.3739 58.9476 20.0522 59.4478 20.5522C59.9478 21.0524 60.6261 21.3334 61.3334 21.3334C62.0406 21.3334 62.7189 21.0524 63.219 20.5522C63.719 20.0522 64 19.3739 64 18.6666V13.3334C63.9957 9.79841 62.5896 6.40949 60.0901 3.90992C57.5905 1.41035 54.2016 0.00423429 50.6666 0Z" fill="#27C9DD"/>
<path d="M32 29.3334C34.1096 29.3334 36.172 28.7077 37.9261 27.5356C39.6802 26.3636 41.0474 24.6977 41.8547 22.7486C42.662 20.7995 42.8732 18.6549 42.4617 16.5857C42.0501 14.5166 41.0342 12.616 39.5425 11.1242C38.0507 9.63244 36.1501 8.61654 34.081 8.20496C32.0119 7.79339 29.8671 8.00462 27.918 8.81196C25.969 9.61929 24.3031 10.9865 23.131 12.7406C21.9589 14.4947 21.3334 16.557 21.3334 18.6666C21.3334 21.4956 22.4571 24.2087 24.4575 26.2091C26.4579 28.2095 29.171 29.3334 32 29.3334ZM32 13.3334C33.0549 13.3334 34.086 13.6461 34.963 14.2321C35.8401 14.8182 36.5237 15.6511 36.9274 16.6257C37.331 17.6002 37.4366 18.6726 37.2309 19.7071C37.0251 20.7417 36.5171 21.692 35.7712 22.4379C35.0254 23.1837 34.075 23.6917 33.0405 23.8975C32.0059 24.1034 30.9336 23.9977 29.959 23.594C28.9845 23.1904 28.1515 22.5067 27.5655 21.6297C26.9795 20.7526 26.6666 19.7215 26.6666 18.6666C26.6666 17.2521 27.2286 15.8956 28.2287 14.8954C29.229 13.8952 30.5855 13.3334 32 13.3334Z" fill="#6E7FFC"/>
<path d="M48 53.3334C48.7072 53.3334 49.3855 53.0524 49.8856 52.5522C50.3857 52.0522 50.6666 51.3739 50.6666 50.6666C50.6625 46.4245 48.9754 42.3574 45.9757 39.3576C42.976 36.358 38.9089 34.6709 34.6666 34.6666H29.3334C25.0911 34.6709 21.024 36.358 18.0244 39.3576C15.0246 42.3574 13.3376 46.4245 13.3334 50.6666C13.3334 51.3739 13.6142 52.0522 14.1144 52.5522C14.6145 53.0524 15.2927 53.3334 16 53.3334C16.7072 53.3334 17.3855 53.0524 17.8856 52.5522C18.3857 52.0522 18.6666 51.3739 18.6666 50.6666C18.6666 47.8378 19.7905 45.1246 21.7909 43.1242C23.7912 41.1239 26.5044 40 29.3334 40H34.6666C37.4956 40 40.2088 41.1239 42.2091 43.1242C44.2095 45.1246 45.3334 47.8378 45.3334 50.6666C45.3334 51.3739 45.6143 52.0522 46.1144 52.5522C46.6145 53.0524 47.2928 53.3334 48 53.3334Z" fill="#6E7FFC"/>
</g>
<defs>
<clipPath id="clip0_28_6">
<rect width="64" height="64" fill="white"/>
</clipPath>
</defs>
</svg>
