<svg width="64" height="64" viewBox="0 0 64 64" fill="none" xmlns="http://www.w3.org/2000/svg">
<g clip-path="url(#clip0_33_2)">
<path d="M52.4575 12.0813V23.9225C52.4575 24.5113 51.9813 24.9875 51.3925 24.9875H45.7375C45.15 24.9875 44.6738 24.5113 44.6738 23.9225V19.8663C44.6738 19.2775 44.1963 18.8013 43.6088 18.8013H36.9575C36.3688 18.8013 35.8925 19.2775 35.8925 19.8663V49.1338C35.8925 49.7225 36.3688 50.1988 36.9575 50.1988H39.8663C40.455 50.1988 40.9313 50.675 40.9313 51.2638V56.9188C40.9313 57.5063 40.455 57.9825 39.8663 57.9825H24.1338C23.545 57.9825 23.0688 57.5063 23.0688 56.9188V51.2638C23.0688 50.675 23.545 50.1988 24.1338 50.1988H27.0425C27.6313 50.1988 28.1075 49.7225 28.1075 49.1338V19.8663C28.1075 19.2775 27.6313 18.8013 27.0425 18.8013H20.3913C19.8038 18.8013 19.3263 19.2775 19.3263 19.8663V23.9225C19.3263 24.5113 18.85 24.9875 18.2625 24.9875H12.6075C12.0188 24.9875 11.5425 24.5113 11.5425 23.9225V12.0813C11.5425 11.4938 12.0188 11.0175 12.6075 11.0175H51.3925C51.9813 11.0175 52.4575 11.4938 52.4575 12.0813Z" fill="#334973"/>
<path d="M1.875 14.2794C0.8395 14.2794 0 13.4399 0 12.4044V1.875C0 0.8395 0.8395 0 1.875 0H12.4044C13.4399 0 14.2794 0.8395 14.2794 1.875C14.2794 2.9105 13.4399 3.75 12.4044 3.75H3.75V12.4044C3.75 13.44 2.9105 14.2794 1.875 14.2794Z" fill="#7ED8F6"/>
<path d="M62.125 14.2794C61.0895 14.2794 60.25 13.4399 60.25 12.4044V3.75H51.5956C50.5601 3.75 49.7206 2.9105 49.7206 1.875C49.7206 0.8395 50.5601 0 51.5956 0H62.125C63.1605 0 64 0.8395 64 1.875V12.4044C64 13.44 63.1605 14.2794 62.125 14.2794Z" fill="#6AA9FF"/>
<path d="M62.125 64H51.5956C50.5601 64 49.7206 63.1605 49.7206 62.125C49.7206 61.0895 50.5601 60.25 51.5956 60.25H60.25V51.5956C60.25 50.5601 61.0895 49.7206 62.125 49.7206C63.1605 49.7206 64 50.5601 64 51.5956V62.125C64 63.1605 63.1605 64 62.125 64Z" fill="#6AA9FF"/>
<path d="M12.4044 64H1.875C0.8395 64 0 63.1605 0 62.125V51.5956C0 50.5601 0.8395 49.7206 1.875 49.7206C2.9105 49.7206 3.75 50.5601 3.75 51.5956V60.25H12.4044C13.4399 60.25 14.2794 61.0895 14.2794 62.125C14.2794 63.1605 13.44 64 12.4044 64Z" fill="#7ED8F6"/>
<path d="M52.4575 12.0813V23.9225C52.4575 24.5113 51.9813 24.9875 51.3925 24.9875H45.7375C45.15 24.9875 44.6738 24.5113 44.6738 23.9225V19.8663C44.6738 19.2775 44.1962 18.8013 43.6087 18.8013H36.9575C36.3688 18.8013 35.8925 19.2775 35.8925 19.8663V49.1338C35.8925 49.7225 36.3688 50.1988 36.9575 50.1988H39.8662C40.455 50.1988 40.9313 50.675 40.9313 51.2638V56.9188C40.9313 57.5063 40.455 57.9825 39.8662 57.9825H32V11.0175H51.3925C51.9813 11.0175 52.4575 11.4938 52.4575 12.0813Z" fill="#1F3259"/>
</g>
<defs>
<clipPath id="clip0_33_2">
<rect width="64" height="64" fill="white"/>
</clipPath>
</defs>
</svg>
