<svg width="256" height="256" viewBox="0 0 256 256" fill="none" xmlns="http://www.w3.org/2000/svg">
<path d="M8.09596 179.32C7.8327 180.504 8.12115 181.744 8.88018 182.691C9.63921 183.637 10.7868 184.188 12 184.188H100C102.209 184.188 104 182.397 104 180.188C103.971 153.69 82.4977 132.217 56 132.188C53.7908 132.188 52 133.979 52 136.188C52 138.397 53.7908 140.188 56 140.188C76.5317 140.214 93.7188 155.762 95.796 176.188H17.12C22.7849 155.838 35.02 137.933 51.92 125.26L53.348 124.188H109.6C102.806 140.752 104.758 159.618 114.8 174.44C116.045 176.266 118.534 176.737 120.36 175.492C122.186 174.247 122.657 171.758 121.412 169.932C112.229 156.335 111.12 138.835 118.512 124.188H120.948C129.258 124.177 135.991 117.442 136 109.132V107.24C135.991 98.9291 129.255 92.1946 120.944 92.188H47.056C38.7451 92.1946 32.0088 98.9291 32 107.24V109.132C32.0155 115.414 35.9349 121.024 41.828 123.2C24.8185 137.773 12.9844 157.461 8.09597 179.32H8.09596ZM40 107.24C40.0044 103.346 43.1615 100.19 47.056 100.188H120.944C124.838 100.19 127.996 103.346 128 107.24V109.132C127.996 113.027 124.839 116.184 120.944 116.188H47.056C43.1609 116.184 40.0044 113.027 40 109.132V107.24Z" fill="#7FACFA"/>
<path d="M220 196.188C220 193.979 218.209 192.188 216 192.188C213.791 192.188 212 193.979 212 196.188C212 200.606 208.418 204.188 204 204.188C199.582 204.188 196 200.606 196 196.188C196 193.979 194.209 192.188 192 192.188C189.791 192.188 188 193.979 188 196.188C188 205.025 195.163 212.188 204 212.188C212.837 212.188 220 205.025 220 196.188Z" fill="#7FACFA"/>
<path d="M64 196.188C64 200.606 60.4183 204.188 56 204.188C51.5817 204.188 48 200.606 48 196.188C48 193.979 46.2091 192.188 44 192.188C41.7909 192.188 40 193.979 40 196.188C40 205.025 47.1634 212.188 56 212.188C64.8366 212.188 72 205.025 72 196.188C72 193.979 70.2091 192.188 68 192.188C65.7909 192.188 64 193.979 64 196.188Z" fill="#7FACFA"/>
<path d="M208 136.4V132.2L207.976 131.756C205.527 112.598 196.663 94.8331 182.828 81.356L181.656 80.184H180C166.751 80.1972 156.013 90.9346 156 104.184V139.032C156.017 146.396 153.091 153.461 147.872 158.656L146.472 160.052C143.421 163.094 139.709 165.39 135.624 166.76C133.525 167.459 132.391 169.727 133.09 171.826C133.789 173.925 136.057 175.059 138.156 174.36C143.417 172.597 148.199 169.642 152.128 165.724L153.528 164.324C160.255 157.631 164.026 148.525 164 139.036V104.188C164.009 95.9737 170.228 89.0965 178.4 88.264C190.215 100.231 197.799 115.728 200 132.4V136.4C177.361 138.489 160.032 157.465 160 180.2C160 182.409 161.791 184.2 164 184.2H244C246.209 184.2 248 182.409 248 180.2C247.968 157.465 230.639 138.489 208 136.4ZM168.22 176.2C170.245 157.968 185.656 144.174 204 144.174C222.344 144.174 237.755 157.968 239.78 176.2H168.22Z" fill="#428DFF"/>
<path d="M12 144.188C14.2091 144.188 16 142.397 16 140.188V128.188H24C26.2091 128.188 28 126.397 28 124.188C28 121.979 26.2091 120.188 24 120.188H12C9.79086 120.188 8 121.979 8 124.188V140.188C8 142.397 9.79086 144.188 12 144.188Z" fill="#7FACFA"/>
<path d="M164.204 60.188C165.195 67.0534 171.064 72.1581 178 72.188H192C194.209 72.188 196 70.3971 196 68.188V44.188C196 41.9788 194.209 40.188 192 40.188H178C171.06 40.2077 165.185 45.3174 164.204 52.188H148C145.791 52.188 144 53.9788 144 56.188C144 58.3971 145.791 60.188 148 60.188H164.204ZM172 54.188C172 50.8743 174.686 48.188 178 48.188H188V64.188H178C174.686 64.188 172 61.5017 172 58.188V54.188Z" fill="#03045E"/>
<path d="M244 224.188H226.576C235.061 217.37 239.997 207.073 240 196.188C240 193.979 238.209 192.188 236 192.188C233.791 192.188 232 193.979 232 196.188C232 211.652 219.464 224.188 204 224.188C188.536 224.188 176 211.652 176 196.188C176 193.979 174.209 192.188 172 192.188C169.791 192.188 168 193.979 168 196.188C168.003 207.073 172.939 217.37 181.424 224.188H78.576C87.0607 217.37 91.9973 207.073 92 196.188C92 193.979 90.2092 192.188 88 192.188C85.7909 192.188 84 193.979 84 196.188C84 211.652 71.464 224.188 56 224.188C40.536 224.188 28 211.652 28 196.188C28 193.979 26.2091 192.188 24 192.188C21.7909 192.188 20 193.979 20 196.188C20.0027 207.073 24.9393 217.37 33.424 224.188H12C9.79086 224.188 8 225.979 8 228.188C8 230.397 9.79086 232.188 12 232.188H244C246.209 232.188 248 230.397 248 228.188C248 225.979 246.209 224.188 244 224.188Z" fill="#7FACFA"/>
</svg>
