<svg width="64" height="64" viewBox="0 0 64 64" fill="none" xmlns="http://www.w3.org/2000/svg">
<g clip-path="url(#clip0_28_20)">
<path d="M50.6667 0H13.3333C9.79841 0.00423429 6.40949 1.41035 3.90992 3.90992C1.41035 6.40949 0.00423429 9.79841 0 13.3333L0 50.6667C0.00423429 54.2016 1.41035 57.5905 3.90992 60.0901C6.40949 62.5897 9.79841 63.9958 13.3333 64H50.6667C54.2016 63.9958 57.5905 62.5897 60.0901 60.0901C62.5897 57.5905 63.9958 54.2016 64 50.6667V13.3333C63.9958 9.79841 62.5897 6.40949 60.0901 3.90992C57.5905 1.41035 54.2016 0.00423429 50.6667 0ZM58.6667 50.6667C58.6667 52.7884 57.8238 54.8232 56.3235 56.3235C54.8232 57.8238 52.7884 58.6667 50.6667 58.6667H13.3333C11.2116 58.6667 9.17677 57.8238 7.67648 56.3235C6.17619 54.8232 5.33333 52.7884 5.33333 50.6667V13.3333C5.33333 11.2116 6.17619 9.17677 7.67648 7.67648C9.17677 6.17619 11.2116 5.33333 13.3333 5.33333H50.6667C52.7884 5.33333 54.8232 6.17619 56.3235 7.67648C57.8238 9.17677 58.6667 11.2116 58.6667 13.3333V50.6667ZM48 24C48 24.7072 47.7191 25.3855 47.219 25.8856C46.7189 26.3857 46.0406 26.6667 45.3333 26.6667C44.6261 26.6667 43.9478 26.3857 43.4477 25.8856C42.9476 25.3855 42.6667 24.7072 42.6667 24C42.6667 23.2928 42.3857 22.6145 41.8856 22.1144C41.3855 21.6143 40.7072 21.3333 40 21.3333H34.6667V42.6667H37.3333C38.0406 42.6667 38.7189 42.9476 39.219 43.4477C39.719 43.9478 40 44.6261 40 45.3333C40 46.0406 39.719 46.7189 39.219 47.219C38.7189 47.7191 38.0406 48 37.3333 48H26.6667C25.9594 48 25.2811 47.7191 24.781 47.219C24.281 46.7189 24 46.0406 24 45.3333C24 44.6261 24.281 43.9478 24.781 43.4477C25.2811 42.9476 25.9594 42.6667 26.6667 42.6667H29.3333V21.3333H24C23.2928 21.3333 22.6145 21.6143 22.1144 22.1144C21.6143 22.6145 21.3333 23.2928 21.3333 24C21.3333 24.7072 21.0524 25.3855 20.5523 25.8856C20.0522 26.3857 19.3739 26.6667 18.6667 26.6667C17.9594 26.6667 17.2811 26.3857 16.781 25.8856C16.281 25.3855 16 24.7072 16 24C16 21.8783 16.8429 19.8434 18.3431 18.3431C19.8434 16.8429 21.8783 16 24 16H40C42.1217 16 44.1566 16.8429 45.6569 18.3431C47.1571 19.8434 48 21.8783 48 24Z" fill="black"/>
</g>
<defs>
<clipPath id="clip0_28_20">
<rect width="64" height="64" fill="white"/>
</clipPath>
</defs>
</svg>
