<svg width="64" height="64" viewBox="0 0 64 64" fill="none" xmlns="http://www.w3.org/2000/svg">
<g clip-path="url(#clip0_29_29)">
<path d="M54.4902 9.29395C48.478 3.3042 40.48 0.00341798 31.9678 0C23.4746 0 15.4639 3.29785 9.41211 9.28614C3.34961 15.2846 0.0078125 23.2564 0 31.7036V31.7134V31.7192C0.000976562 36.832 1.34424 41.9897 3.89404 46.6978L0.0874024 64L17.5889 60.019C22.0215 62.2529 26.9673 63.4306 31.9556 63.4326H31.9683C40.46 63.4326 48.4707 60.1343 54.5235 54.1455C60.5912 48.1421 63.9346 40.1806 63.9385 31.728C63.9409 23.335 60.586 15.3676 54.4902 9.29395ZM31.9678 58.4375H31.9565C27.4775 58.4355 23.0395 57.311 19.123 55.1846L18.2954 54.7354L6.65771 57.3824L9.18555 45.894L8.69824 45.0537C6.27539 40.8755 4.99511 36.2631 4.99511 31.7139C5.0044 16.9887 17.103 4.99511 31.9667 4.99511C39.1475 4.99805 45.8945 7.78174 50.9649 12.8325C56.1119 17.9614 58.9452 24.6714 58.9429 31.7265C58.937 46.4551 46.836 58.4375 31.9678 58.4375Z" fill="url(#paint0_linear_29_29)"/>
<path d="M23.269 17.7329H21.8676C21.3799 17.7329 20.5879 17.9155 19.918 18.6445C19.2475 19.374 17.3584 21.1373 17.3584 24.7231C17.3584 28.3091 19.979 31.7739 20.3442 32.2608C20.71 32.7471 25.4029 40.3409 32.8355 43.2623C39.0127 45.69 40.27 45.207 41.6104 45.0855C42.9511 44.9644 45.937 43.3228 46.5464 41.6211C47.1557 39.9194 47.1557 38.4605 46.9731 38.1558C46.79 37.852 46.3022 37.6699 45.5712 37.3056C44.8399 36.9409 41.2559 35.148 40.5855 34.9043C39.915 34.6616 39.4277 34.54 38.94 35.27C38.4521 35.9985 37.0161 37.6841 36.5894 38.1704C36.1631 38.6573 35.7364 38.7183 35.0049 38.3535C34.2735 37.9878 31.9424 37.2046 29.1489 34.7221C26.9746 32.79 25.4659 30.3261 25.039 29.5966C24.6127 28.8676 24.9936 28.4731 25.3604 28.1094C25.689 27.7833 26.1329 27.3369 26.4985 26.9116C26.8637 26.4859 26.9677 26.1821 27.2119 25.6958C27.4556 25.2095 27.3335 24.7838 27.1509 24.4194C26.9677 24.0546 25.5645 20.4506 24.914 19.0093H24.9145C24.3667 17.7954 23.79 17.7544 23.269 17.7329Z" fill="url(#paint1_linear_29_29)"/>
</g>
<defs>
<linearGradient id="paint0_linear_29_29" x1="31.969" y1="0" x2="31.969" y2="64" gradientUnits="userSpaceOnUse">
<stop stop-color="#2AF598"/>
<stop offset="1" stop-color="#009EFD"/>
</linearGradient>
<linearGradient id="paint1_linear_29_29" x1="32.2187" y1="17.7329" x2="32.2187" y2="45.2063" gradientUnits="userSpaceOnUse">
<stop stop-color="#2AF598"/>
<stop offset="1" stop-color="#009EFD"/>
</linearGradient>
<clipPath id="clip0_29_29">
<rect width="64" height="64" fill="white"/>
</clipPath>
</defs>
</svg>
