<svg width="64" height="64" viewBox="0 0 64 64" fill="none" xmlns="http://www.w3.org/2000/svg">
<g clip-path="url(#clip0_11_13)">
<path d="M9.83554 31.7726C11.7852 31.7736 13.6821 32.406 15.2422 33.5751C16.8025 34.7444 17.942 36.3874 18.4904 38.2584H13.5646C13.0219 37.4608 12.2379 36.858 11.3275 36.5388C10.4172 36.2194 9.42846 36.2003 8.50646 36.4843C7.58446 36.7681 6.77774 37.34 6.20468 38.1161C5.63161 38.8921 5.32239 39.8315 5.32239 40.7963C5.32239 41.7609 5.63161 42.7003 6.20468 43.4764C6.77774 44.2524 7.58446 44.8244 8.50646 45.1083C9.42846 45.3921 10.4172 45.373 11.3275 45.0538C12.2379 44.7344 13.0219 44.1318 13.5646 43.3341H18.4904C18.0191 44.942 17.1095 46.3869 15.8635 47.507C14.6175 48.6271 13.0841 49.3781 11.4353 49.6761C9.78654 49.974 8.08736 49.807 6.52814 49.1936C4.96891 48.5804 3.61123 47.5451 2.60714 46.2039C1.60306 44.8625 0.99225 43.2681 0.843127 41.5994C0.694005 39.9305 1.01246 38.2531 1.76283 36.755C2.51319 35.257 3.66583 33.9974 5.09161 33.1174C6.51741 32.2374 8.16005 31.7718 9.83554 31.7726Z" fill="#4A4F6C"/>
<path d="M10.5608 41.6423C10.3628 41.8235 10.1041 41.9241 9.83555 41.9241C9.56704 41.9241 9.30828 41.8235 9.11028 41.6423H8.98958V41.5215C8.80823 41.3235 8.70764 41.0648 8.70764 40.7963C8.70764 40.5278 8.80823 40.269 8.98958 40.071V39.9503H9.11028C9.30828 39.7689 9.56704 39.6684 9.83555 39.6684C10.1041 39.6684 10.3628 39.7689 10.5608 39.9503H23.371V36.2844C23.3728 35.6866 23.611 35.1139 24.0338 34.6913C24.4564 34.2685 25.0291 34.0303 25.6269 34.0285H41.4183V38.5404C41.4165 39.1381 41.1783 39.7109 40.7555 40.1335C40.3329 40.5563 39.7601 40.7945 39.1624 40.7963H35.9139C35.4606 39.6333 34.6669 38.6341 33.6365 37.9298C32.606 37.2254 31.3869 36.8485 30.1388 36.8485C28.8905 36.8485 27.6715 37.2254 26.641 37.9298C25.6105 38.6341 24.8168 39.6333 24.3636 40.7963C23.7921 42.2459 23.7921 43.8584 24.3636 45.308H21.1151V41.6423H10.5608Z" fill="#4A4F6C"/>
<path d="M51.0272 38.6136C50.5579 39.454 50.37 40.4226 50.4912 41.3776C50.6124 42.3325 51.0362 43.2236 51.7007 43.9201C52.3651 44.6166 53.2352 45.082 54.1834 45.248C55.1315 45.414 56.108 45.272 56.9695 44.8427C57.8311 44.4134 58.5325 43.7195 58.971 42.8625C59.4095 42.0055 59.5619 41.0307 59.406 40.0809C59.2501 39.1309 58.794 38.256 58.1046 37.5841C57.4152 36.9122 56.5287 36.479 55.5752 36.3476L53.3632 31.908C53.8885 31.8171 54.4206 31.7719 54.9537 31.7726C57.0589 31.77 59.0989 32.5025 60.7214 33.8437C62.344 35.185 63.4472 37.0506 63.8407 39.1187C64.2342 41.1867 63.8932 43.3272 62.8766 45.1706C61.86 47.0141 60.2315 48.4446 58.2725 49.2152C56.3135 49.9859 54.1469 50.0482 52.1467 49.3916C50.1466 48.735 48.4386 47.4005 47.3176 45.6186C46.1966 43.8367 45.7331 41.7194 46.007 39.6321C46.2807 37.5449 47.2749 35.6187 48.8176 34.1864L51.0272 38.6136Z" fill="#4A4F6C"/>
<path d="M5.32373 27.2607V22.749H14.3474L16.6032 25.0049H21.4794L23.6236 29.2945L5.32373 27.2607Z" fill="#4A4F6C"/>
<path d="M23.371 25.0049L25.2434 23.1325C26.0801 22.2954 27.0736 21.6314 28.1671 21.1785C29.2608 20.7256 30.4328 20.4926 31.6164 20.493H41.9935L46.3023 29.1445L43.1103 32.3365H27.0369L23.371 25.0049Z" fill="#4A4F6C"/>
<path d="M56.0816 40.7962C56.0749 40.8845 56.0574 40.9716 56.0298 41.0556L56.0884 41.1741L55.996 41.2215C55.9115 41.4287 55.7674 41.6064 55.5818 41.7315C55.3963 41.8566 55.1775 41.9237 54.9538 41.9242C54.8655 41.9174 54.7784 41.9 54.6943 41.8722L54.5759 41.931L54.5285 41.8385C54.3211 41.7541 54.1436 41.6099 54.0185 41.4244C53.8934 41.2387 53.8263 41.0201 53.8258 40.7962C53.8326 40.708 53.85 40.6209 53.8776 40.5369L41.3473 15.4172H36.5128V13.7254H41.8695C42.0266 13.7255 42.1806 13.7694 42.3143 13.852C42.448 13.9346 42.556 14.0529 42.6263 14.1935L55.379 39.754C55.5863 39.8384 55.7638 39.9826 55.889 40.1681C56.0141 40.3537 56.0811 40.5724 56.0816 40.7962Z" fill="#4A4F6C"/>
<path d="M30.1387 38.5402C31.3354 38.5402 32.4829 39.0156 33.329 39.8617C34.1752 40.7079 34.6505 41.8555 34.6505 43.0521C34.6445 43.5324 34.5611 44.0084 34.4035 44.462H39.1624V46.154H33.4019C32.8877 46.697 32.2469 47.1037 31.5366 47.3376C30.8264 47.5715 30.0691 47.6251 29.333 47.4937C28.5969 47.3624 27.9049 47.0501 27.3194 46.5851C26.7339 46.12 26.2731 45.5167 25.9785 44.8295C25.684 44.1421 25.5649 43.3925 25.6319 42.6477C25.6989 41.903 25.9499 41.1865 26.3625 40.5629C26.775 39.9392 27.3361 39.4279 27.9952 39.0749C28.6544 38.7217 29.391 38.5381 30.1387 38.5402Z" fill="#6E7FFC"/>
<path d="M46.3602 18.321L46.2245 18.0496H46.5279H48.186H48.2636L48.3186 18.1046L52.8304 22.6164L53.0752 22.8612L52.7364 22.9325L49.1946 23.677L49.053 23.7067L48.9884 23.5772L46.3602 18.321Z" fill="#6E7FFC" stroke="#6E7FFC" stroke-width="3"/>
</g>
<defs>
<clipPath id="clip0_11_13">
<rect width="64" height="64" fill="white"/>
</clipPath>
</defs>
</svg>
