<svg width="64" height="64" viewBox="0 0 64 64" fill="none" xmlns="http://www.w3.org/2000/svg">
<g clip-path="url(#clip0_11_10)">
<path d="M10.3071 30.771C12.7321 30.7743 15.0713 31.6698 16.8785 33.2869C18.658 34.879 19.7993 37.0611 20.0935 39.4281C20.1013 39.4913 20.1548 39.5391 20.2183 39.5391H22.2383C22.3074 39.5391 22.3633 39.4831 22.3633 39.4141V36.2511C22.3633 35.379 22.7098 34.5428 23.3264 33.9261C23.943 33.3095 24.7793 32.963 25.6514 32.963H25.8678C25.9608 32.963 26.0211 32.8653 25.9796 32.7821L24.9683 30.7595C24.9493 30.7215 24.9124 30.6959 24.8703 30.6911L5.8025 28.5724C5.53433 28.5428 5.28651 28.4151 5.10653 28.2141C4.92655 28.0131 4.82703 27.7528 4.82705 27.483V23.0989C4.82705 22.8083 4.94253 22.5294 5.14806 22.3239C5.35361 22.1184 5.63239 22.0029 5.92306 22.0029H14.6913C14.9819 22.0029 15.2606 22.1185 15.4661 22.324L17.3004 24.1583C17.3238 24.1818 17.3556 24.1949 17.3888 24.1949H22.9538C22.987 24.1949 23.0188 24.1818 23.0421 24.1583L24.5005 22.6999C25.4141 21.781 26.5009 21.0525 27.698 20.5566C28.8951 20.0606 30.1788 19.8071 31.4745 19.8109H42.308C42.4009 19.8109 42.4614 19.713 42.4199 19.6299L40.3527 15.4959C40.3316 15.4535 40.2884 15.4268 40.241 15.4268H35.6405C35.5715 15.4268 35.5155 15.3708 35.5155 15.3018V13.3598C35.5155 13.2908 35.5715 13.2348 35.6405 13.2348H40.9956C41.1992 13.2346 41.3989 13.2913 41.5721 13.3984C41.7455 13.5054 41.8855 13.6586 41.9765 13.8409L44.962 19.8109L47.5368 17.6481C47.5594 17.6291 47.5879 17.6185 47.6172 17.6198C47.8912 17.6313 48.1519 17.7451 48.3465 17.9399L52.7306 22.324C52.8704 22.4635 52.9698 22.6381 53.0184 22.8295C53.067 23.0209 53.063 23.2219 53.0069 23.4111C52.9507 23.6004 52.8445 23.771 52.6995 23.905C52.5605 24.0331 52.391 24.1231 52.2072 24.1664C52.191 24.1703 52.1741 24.1703 52.1579 24.1671L46.6061 23.0989L50.7001 31.287C50.7286 31.344 50.7953 31.3703 50.8553 31.3491C53.1926 30.5223 55.7575 30.6063 58.0376 31.5871C60.3519 32.5826 62.1973 34.4264 63.1946 36.7399C64.192 39.0535 64.2657 41.661 63.4006 44.0273C62.5356 46.3934 60.7974 48.3386 58.543 49.4633C56.2886 50.5879 53.6891 50.8068 51.2785 50.0748C48.8677 49.3429 46.8289 47.7156 45.5804 45.5274C44.3319 43.3391 43.9686 40.7559 44.5653 38.3083C45.153 35.8968 46.6284 33.7973 48.6946 32.427C48.7476 32.3919 48.7668 32.3226 48.7383 32.2656L47.35 29.4881C47.3119 29.4119 47.2101 29.3954 47.1497 29.4556L42.1283 34.4761C42.1048 34.4996 42.0916 34.5314 42.0916 34.5646V38.4431C42.0916 39.3151 41.7451 40.1515 41.1285 40.7681C40.5119 41.3848 39.6756 41.7311 38.8035 41.7311H35.559C35.4799 41.7311 35.4208 41.8036 35.4344 41.8815C35.544 42.5073 35.544 43.1471 35.4344 43.7728C35.4208 43.8506 35.4799 43.9231 35.559 43.9231H39.7745C39.8436 43.9231 39.8995 43.9791 39.8995 44.0481V45.9903C39.8995 46.0593 39.8436 46.1153 39.7745 46.1153H34.4539C34.4143 46.1153 34.3771 46.134 34.3532 46.1655C33.8514 46.8254 33.2049 47.3619 32.4631 47.7333C31.7025 48.1141 30.8631 48.3108 30.0126 48.3075C29.162 48.3041 28.3241 48.1009 27.5666 47.7143C26.8166 47.3314 26.1661 46.7794 25.6665 46.1019C25.6618 46.0954 25.6514 46.0988 25.6514 46.1069C25.6514 46.1115 25.6476 46.1153 25.643 46.1153H21.2673C20.9766 46.1153 20.6979 45.9998 20.4923 45.7943C20.2868 45.5886 20.1713 45.3099 20.1713 45.0193V41.7653C20.1713 41.7464 20.156 41.7311 20.1371 41.7311C20.1198 41.7311 20.1051 41.7443 20.1031 41.7615C19.8869 43.6429 19.1336 45.4225 17.933 46.8875C16.726 48.3604 15.1184 49.4525 13.3043 50.0318C11.4902 50.6111 9.54715 50.6529 7.70981 50.1521C5.87248 49.6514 4.21936 48.6295 2.95005 47.2099C1.68074 45.7903 0.849503 44.0335 0.556695 42.1519C0.263888 40.2701 0.522029 38.3439 1.29995 36.6056C2.07788 34.8675 3.34231 33.3916 4.94063 32.3563C6.53894 31.3209 8.40278 30.7703 10.3071 30.771ZM46.4756 40.6351C46.4716 42.2625 46.9838 43.8491 47.9386 45.1669C48.8935 46.4848 50.2418 47.4656 51.7894 47.9686C53.337 48.4715 55.0044 48.4706 56.5515 47.966C58.0986 47.4613 59.4457 46.4789 60.3991 45.16C61.3525 43.8411 61.863 42.2539 61.857 40.6266C61.8511 38.9993 61.3292 37.4158 60.3664 36.1039C59.4035 34.7919 58.0493 33.8193 56.4985 33.3258C54.9936 32.8469 53.379 32.8433 51.8737 33.3134C51.8011 33.336 51.767 33.4185 51.801 33.4865L52.693 35.2695C52.7199 35.3233 52.7812 35.3501 52.8394 35.3346C53.2664 35.2216 53.7058 35.1613 54.1478 35.155C55.4613 35.1399 56.7374 35.5914 57.749 36.4293C58.7605 37.2673 59.4418 38.437 59.6714 39.7303C59.901 41.0236 59.664 42.3564 59.0025 43.4913C58.3411 44.6261 57.2984 45.4894 56.06 45.9271C54.8215 46.3649 53.4679 46.3489 52.2402 45.8818C51.0126 45.4146 49.9906 44.5269 49.3564 43.3766C48.7221 42.2264 48.5169 40.8883 48.7771 39.6008C49.0308 38.3466 49.71 37.2198 50.6982 36.4101C50.744 36.3726 50.7585 36.3084 50.732 36.2554L49.8391 34.4686C49.8051 34.4005 49.7186 34.3784 49.6569 34.4229C48.693 35.118 47.9035 36.0281 47.3512 37.0819C46.7767 38.1783 46.4764 39.3974 46.4756 40.6351ZM50.8597 40.6351C50.8597 41.2855 51.0525 41.9211 51.4139 42.4619C51.7751 43.0026 52.2886 43.424 52.8895 43.6729C53.4902 43.9218 54.1514 43.9869 54.7892 43.86C55.427 43.7331 56.0129 43.42 56.4728 42.9601C56.9326 42.5003 57.2457 41.9144 57.3726 41.2766C57.4995 40.6388 57.4344 39.9776 57.1855 39.3769C56.9366 38.776 56.5152 38.2625 55.9745 37.9013C55.4337 37.5399 54.7981 37.3471 54.1478 37.3471C54.0708 37.3501 53.994 37.3559 53.9174 37.3644C53.8339 37.3738 53.7879 37.4638 53.8254 37.539L55.5575 41.0134C55.5882 41.075 55.5631 41.15 55.5015 41.1809L53.7643 42.05C53.7024 42.0809 53.6274 42.0559 53.5965 41.9941L51.8582 38.5166C51.8196 38.4395 51.7165 38.4238 51.66 38.489C51.1447 39.083 50.8592 39.8448 50.8597 40.6351ZM16.8833 26.3869C16.5926 26.3869 16.3139 26.2714 16.1084 26.0658L14.274 24.2315C14.2506 24.2081 14.2189 24.1949 14.1856 24.1949H7.14409C7.07505 24.1949 7.01908 24.2509 7.01908 24.3199V26.3901C7.01908 26.4538 7.06699 26.5074 7.1303 26.5144L23.5423 28.3344C23.6408 28.3454 23.7121 28.2429 23.6679 28.1543L22.8188 26.456C22.7975 26.4136 22.7543 26.3869 22.7069 26.3869H16.8833ZM49.5233 22.4886C49.6205 22.4683 49.6562 22.3481 49.586 22.2779L47.1556 19.8475C47.1321 19.824 47.1004 19.8109 47.0672 19.8109H44.962L46.6061 23.0989L49.5233 22.4886ZM43.6463 22.072C43.6251 22.0296 43.5819 22.0029 43.5345 22.0029H31.4745C30.4668 22.0001 29.4684 22.1974 28.5374 22.583C27.6063 22.9688 26.761 23.5351 26.0503 24.2498L24.8568 25.4464C24.8188 25.4845 24.8094 25.5425 24.8334 25.5906L28.4851 32.8939C28.5063 32.9363 28.5495 32.963 28.5969 32.963H40.49C40.5233 32.963 40.555 32.9499 40.5784 32.9264L46.1774 27.3274C46.2155 27.2894 46.2249 27.2313 46.2009 27.1831L43.6463 22.072ZM38.8035 39.5391C39.0943 39.5391 39.373 39.4236 39.5785 39.2181C39.7841 39.0125 39.8995 38.7338 39.8995 38.4431V35.28C39.8995 35.211 39.8436 35.155 39.7745 35.155H25.6514C25.3606 35.155 25.0819 35.2705 24.8764 35.4761C24.6708 35.6816 24.5554 35.9604 24.5554 36.2511V39.4141C24.5554 39.4831 24.6113 39.5391 24.6804 39.5391H25.6169C25.6565 39.5391 25.6936 39.5204 25.7176 39.4888C26.2169 38.8318 26.8598 38.2971 27.5974 37.9259C28.3538 37.5453 29.1886 37.347 30.0354 37.347C30.8821 37.347 31.7171 37.5453 32.4735 37.9259C33.2111 38.2971 33.8539 38.8318 34.3532 39.4888C34.3771 39.5204 34.4144 39.5391 34.4539 39.5391H38.8035ZM30.0354 46.1153C30.6858 46.1153 31.3214 45.9224 31.8621 45.5611C32.4029 45.1998 32.8242 44.6863 33.0731 44.0855C33.322 43.4846 33.3871 42.8235 33.2603 42.1858C33.1334 41.5479 32.8203 40.962 32.3604 40.5021C31.9006 40.0424 31.3148 39.7291 30.6769 39.6023C30.039 39.4754 29.378 39.5405 28.7771 39.7894C28.1764 40.0383 27.6628 40.4598 27.3015 41.0004C26.9403 41.5411 26.7474 42.1769 26.7474 42.8271C26.7474 43.6993 27.0938 44.5355 27.7104 45.1521C28.327 45.7688 29.1634 46.1153 30.0354 46.1153ZM22.3633 43.7981C22.3633 43.8673 22.4193 43.9231 22.4883 43.9231H24.5119C24.5909 43.9231 24.65 43.8506 24.6364 43.7728C24.5268 43.1471 24.5268 42.5073 24.6364 41.8815C24.65 41.8036 24.5909 41.7311 24.5119 41.7311H22.4883C22.4193 41.7311 22.3633 41.7871 22.3633 41.8561V43.7981ZM10.3071 48.3073C12.1505 48.3051 13.9314 47.6394 15.3241 46.4318C16.6805 45.2558 17.5803 43.6425 17.8696 41.8739C17.8819 41.7988 17.8234 41.7311 17.7473 41.7311H15.7796C15.7203 41.7311 15.6693 41.773 15.6563 41.831C15.3679 43.1209 14.6225 44.2643 13.5561 45.049C12.4623 45.8539 11.1086 46.224 9.75745 46.0875C8.40628 45.951 7.15393 45.3176 6.24318 44.3103C5.33243 43.3029 4.82818 41.9931 4.82818 40.6351C4.82818 39.2771 5.33243 37.9674 6.24318 36.96C7.15393 35.9526 8.40628 35.3193 9.75745 35.1828C11.1086 35.0463 12.4623 35.4164 13.5561 36.2213C14.6225 37.006 15.3679 38.1495 15.6563 39.4393C15.6693 39.4973 15.7203 39.5391 15.7796 39.5391H17.7473C17.8234 39.5391 17.8819 39.4716 17.8696 39.3965C17.6401 37.9941 17.0256 36.6821 16.0931 35.6074C15.1293 34.4963 13.8661 33.6858 12.4544 33.2723C11.0428 32.8589 9.54198 32.86 8.1309 33.2755C6.71983 33.691 5.45795 34.5035 4.49563 35.616C3.53329 36.7285 2.91108 38.0943 2.7031 39.5504C2.49513 41.0066 2.71016 42.4919 3.32259 43.8294C3.93501 45.1668 4.91901 46.3 6.15735 47.0939C7.39569 47.8878 8.83615 48.309 10.3071 48.3073ZM9.33611 41.7311C9.26708 41.7311 9.21111 41.6751 9.21111 41.6061V39.6641C9.21111 39.5951 9.26708 39.5391 9.33611 39.5391H13.2168C13.303 39.5391 13.3633 39.4538 13.3301 39.3741C13.0565 38.7153 12.5753 38.1616 11.9572 37.799C11.2882 37.4066 10.502 37.2633 9.7375 37.3945C8.97303 37.5256 8.27954 37.9228 7.7796 38.5159C7.27966 39.1089 7.00546 39.8595 7.00546 40.6351C7.00546 41.4108 7.27966 42.1614 7.7796 42.7545C8.27954 43.3475 8.97303 43.7446 9.7375 43.8759C10.502 44.007 11.2882 43.8636 11.9572 43.4713C12.5753 43.1086 13.0565 42.555 13.3301 41.8961C13.3633 41.8165 13.303 41.7311 13.2168 41.7311H9.33611Z" fill="#4A4F6C"/>
</g>
<defs>
<clipPath id="clip0_11_10">
<rect width="64" height="64" fill="white"/>
</clipPath>
</defs>
</svg>
