<svg width="64" height="64" viewBox="0 0 64 64" fill="none" xmlns="http://www.w3.org/2000/svg">
<g clip-path="url(#clip0_11_7)">
<path d="M61.656 24.184L41.4293 3.95467C38.926 1.45865 35.5351 0.0570068 32 0.0570068C28.4648 0.0570068 25.074 1.45865 22.5706 3.95467L2.34397 24.184C1.59844 24.9248 1.00736 25.8061 0.604991 26.777C0.202624 27.7479 -0.00302211 28.789 -2.88231e-05 29.84V56.0186C-2.88231e-05 58.1404 0.842826 60.1752 2.34312 61.6755C3.84341 63.1759 5.87824 64.0186 7.99997 64.0186H56C58.1217 64.0186 60.1566 63.1759 61.6568 61.6755C63.1571 60.1752 64 58.1404 64 56.0186V29.84C64.003 28.789 63.7973 27.7479 63.395 26.777C62.9926 25.8061 62.4015 24.9248 61.656 24.184ZM40 64.0186H24V48.1946C24 46.073 24.8428 44.0381 26.3431 42.5379C27.8435 41.0375 29.8782 40.1946 32 40.1946C34.1217 40.1946 36.1566 41.0375 37.6568 42.5379C39.1571 44.0381 40 46.073 40 48.1946V64.0186ZM58.6666 56.0186C58.6666 56.7259 58.3857 57.4043 57.8856 57.9043C57.3855 58.4044 56.7072 58.6854 56 58.6854H45.3333V48.1946C45.3333 44.6585 43.9286 41.2671 41.4281 38.7666C38.9276 36.2661 35.5362 34.8614 32 34.8614C28.4637 34.8614 25.0723 36.2661 22.5718 38.7666C20.0713 41.2671 18.6666 44.6585 18.6666 48.1946V58.6854H7.99997C7.29273 58.6854 6.61444 58.4044 6.11436 57.9043C5.61426 57.4043 5.33331 56.7259 5.33331 56.0186V29.84C5.33578 29.1333 5.61648 28.456 6.11464 27.9546L26.3413 7.73334C27.8445 6.23715 29.8791 5.39719 32 5.39719C34.1208 5.39719 36.1555 6.23715 37.6586 7.73334L57.8853 27.9626C58.3815 28.462 58.6621 29.136 58.6666 29.84V56.0186Z" fill="#4A4F6C"/>
</g>
<defs>
<clipPath id="clip0_11_7">
<rect width="64" height="64" fill="white"/>
</clipPath>
</defs>
</svg>
