<svg width="64" height="64" viewBox="0 0 64 64" fill="none" xmlns="http://www.w3.org/2000/svg">
<g clip-path="url(#clip0_11_2)">
<path d="M32 39.9801C27.5817 39.9801 24 43.5619 24 47.9801V63.9801H40V47.9801C40 43.5619 36.4183 39.9801 32 39.9801Z" fill="#8D4B4B"/>
<path d="M45.3334 47.9801V63.9801H56C60.4183 63.9801 64 60.3984 64 55.9801V31.6575C64.0006 30.2721 63.4623 28.9409 62.4986 27.9455L39.8374 3.44676C35.8389 -0.879486 29.0904 -1.14511 24.7641 2.85339C24.5586 3.04339 24.3606 3.24126 24.1707 3.44676L1.54938 27.9375C0.556625 28.937 -0.000374811 30.2887 1.89229e-07 31.6975V55.9801C1.89229e-07 60.3984 3.58175 63.9801 8 63.9801H18.6666V47.9801C18.7165 40.7086 24.5874 34.7706 31.6758 34.5996C39.0013 34.4229 45.2775 40.462 45.3334 47.9801Z" fill="#4A4F6C"/>
<path d="M32 39.9801C27.5817 39.9801 24 43.5619 24 47.9801V63.9801H40V47.9801C40 43.5619 36.4183 39.9801 32 39.9801Z" fill="#6E7FFC"/>
</g>
<defs>
<clipPath id="clip0_11_2">
<rect width="64" height="64" fill="white"/>
</clipPath>
</defs>
</svg>
