<svg width="114" height="33" viewBox="0 0 114 33" fill="none" xmlns="http://www.w3.org/2000/svg">
<g filter="url(#filter0_d_18_416)">
<path d="M7.86719 23.9609H4V10.3184H6.1582C7.42773 10.3184 8.33594 10.4062 8.88281 10.5723C9.69336 10.8164 10.3574 11.2266 10.8555 11.793C11.3633 12.3594 11.6074 13.0527 11.6074 13.873C11.6074 14.3809 11.4805 14.8496 11.2266 15.2695C11.0215 15.6992 10.6797 16.0996 10.2109 16.4707C11.7832 17.2227 12.5645 18.3848 12.5645 19.9668C12.5645 20.7871 12.3691 21.4805 11.9883 22.0566C11.5488 22.7012 11.041 23.1895 10.4648 23.5117C9.81055 23.8145 8.94141 23.9609 7.86719 23.9609ZM7.17383 15.709C7.80859 15.709 8.28711 15.5625 8.62891 15.2695C8.92188 14.9961 9.06836 14.6348 9.06836 14.1953C9.06836 13.7461 8.92188 13.4043 8.62891 13.1797C8.31641 12.9258 7.86719 12.7988 7.30078 12.7988H6.59766V15.709H7.17383ZM7.23242 21.4805C8.31641 21.4805 9.04883 21.3535 9.44922 21.0996C9.83008 20.8066 10.0254 20.4062 10.0254 19.8984C10.0254 19.332 9.81055 18.8633 9.39062 18.502C8.92188 18.1699 8.18945 17.9941 7.17383 17.9941H6.59766V21.4805H7.23242ZM17.0664 23.9609H14.5273V10.3184H17.0664V23.9609ZM28.9121 23.9609H25.8066L21.6172 17.8672V23.9609H19.0195V10.3184H21.6172V16.4121L25.8066 10.3184H28.9121L24.2246 17.1738L28.9121 23.9609ZM38.2969 23.9609H30.875V10.3184H38.2969V12.8574H33.4141V15.9043H38.2969V18.375H33.4141V21.4219H38.2969V23.9609Z" fill="#4A4F6C"/>
<path d="M55.875 23.9609H53.2773V18.375H48.7754V23.9609H46.1094V10.3184H48.7754V15.9043H53.2773V10.3184H55.875V23.9609ZM62.457 24.3613C61.5 24.3613 60.6602 24.127 59.918 23.6582C59.166 23.2188 58.6387 22.6426 58.3359 21.9492C57.9941 21.2461 57.8281 20.1035 57.8281 18.5215V10.4062H60.4258V19.2246C60.4258 19.9766 60.4844 20.5137 60.6113 20.8066C60.9727 21.4805 61.5684 21.8223 62.3887 21.8223C62.8379 21.8223 63.2383 21.7148 63.5996 21.5C63.9219 21.3145 64.1562 21.0605 64.2832 20.7383C64.4199 20.4258 64.4785 19.791 64.4785 18.8438V10.4062H67.0859V18.5215C67.0859 19.8496 66.998 20.8066 66.832 21.373C66.6953 21.8809 66.4023 22.3887 65.9531 22.8867C65.5039 23.375 64.9863 23.7461 64.4199 23.9805C63.873 24.2344 63.2188 24.3613 62.457 24.3613ZM79.9473 23.9609H77.4668L71.5684 15.0156V23.9609H69.0391V10.3184H71.5098L77.3398 19.332V10.3184H79.9473V23.9609ZM86.9785 23.9805H84.3223V12.9453H81.9102V10.4062H89.459V12.9453H86.9785V23.9805ZM98.8438 23.9609H91.4219V10.3184H98.8438V12.8574H93.9609V15.9043H98.8438V18.375H93.9609V21.4219H98.8438V23.9609ZM109.547 23.9805H106.764L104.283 19.3418H103.395V23.9805H100.797V10.4062H105.172C106.383 10.4062 107.408 10.8359 108.268 11.6855C109.127 12.5449 109.547 13.5801 109.547 14.7812V14.9082C109.547 16.7441 108.658 18.1016 106.891 18.9707L109.547 23.9805ZM104.918 16.8125C105.426 16.8125 105.875 16.6172 106.256 16.2266C106.637 15.8457 106.822 15.3867 106.822 14.8398C106.822 14.3027 106.637 13.8535 106.256 13.4922C105.875 13.1211 105.426 12.9453 104.918 12.9453H103.395V16.8125H104.918Z" fill="#FF9A22"/>
</g>
<defs>
<filter id="filter0_d_18_416" x="0" y="10.3184" width="113.547" height="22.043" filterUnits="userSpaceOnUse" color-interpolation-filters="sRGB">
<feFlood flood-opacity="0" result="BackgroundImageFix"/>
<feColorMatrix in="SourceAlpha" type="matrix" values="0 0 0 0 0 0 0 0 0 0 0 0 0 0 0 0 0 0 127 0" result="hardAlpha"/>
<feOffset dy="4"/>
<feGaussianBlur stdDeviation="2"/>
<feComposite in2="hardAlpha" operator="out"/>
<feColorMatrix type="matrix" values="0 0 0 0 0.913421 0 0 0 0 0.9875 0 0 0 0 0.458365 0 0 0 0.25 0"/>
<feBlend mode="normal" in2="BackgroundImageFix" result="effect1_dropShadow_18_416"/>
<feBlend mode="normal" in="SourceGraphic" in2="effect1_dropShadow_18_416" result="shape"/>
</filter>
</defs>
</svg>
