<svg width="64" height="64" viewBox="0 0 64 64" fill="none" xmlns="http://www.w3.org/2000/svg">
<path d="M37.3864 27.5374L30.1418 34.3801L26.6648 30.8031C26.2794 30.4062 25.6447 30.3972 25.2483 30.7827C24.8514 31.1685 24.8424 31.8029 25.2278 32.1997L29.3979 36.4805C29.7854 36.8702 30.4114 36.8836 30.8149 36.5104L38.7834 28.9944C38.9769 28.8119 39.0899 28.5599 39.0974 28.2941C39.1049 28.0284 39.0064 27.7705 38.8234 27.5774C38.4357 27.1742 37.7963 27.1566 37.3864 27.5374Z" fill="black"/>
<path d="M32.0105 17.0065C23.7307 17.0065 16.9984 23.739 16.9984 32.0187C16.9984 40.2989 23.7307 47.0314 32.0105 47.0314C40.2906 47.0314 47.0231 40.2989 47.0231 32.0187C47.0231 23.739 40.2906 17.0065 32.0105 17.0065ZM32.0105 45.0216C24.8361 45.0216 19.008 39.1834 19.008 32.0187C19.008 24.8541 24.8361 19.0163 32.0105 19.0163C39.192 19.0163 45.0134 24.8376 45.0134 32.0187C45.0134 39.1999 39.192 45.0216 32.0105 45.0216Z" fill="#03B8FF"/>
<path d="M52.6703 26.4921L53.0019 20.5333C53.0251 20.1333 52.8076 19.7576 52.4493 19.5786L47.1436 16.8959L44.4608 11.5902C44.2783 11.2349 43.905 11.0187 43.5061 11.0375L37.5371 11.3594L32.5631 8.07321C32.228 7.85223 31.7935 7.85223 31.4579 8.07321L26.4839 11.3594L20.5255 11.0277C20.1251 11.0041 19.7499 11.2216 19.5709 11.5804L16.8876 16.886L11.5824 19.5689C11.2267 19.751 11.0109 20.1243 11.0297 20.5235L11.361 26.4823L8.07523 31.4562C7.85424 31.7914 7.85424 32.226 8.07523 32.5615L11.3512 37.5454L11.0195 43.5041C10.9963 43.9041 11.2134 44.2798 11.5722 44.4588L16.8778 47.1416L19.5606 52.4473C19.7428 52.8029 20.1161 53.0188 20.5153 52.9999L26.474 52.6683L31.448 55.954C31.7813 56.182 32.2201 56.182 32.5534 55.954L37.5274 52.6683L43.4861 52.9999C43.8861 53.0231 44.2614 52.8056 44.4408 52.4473L47.1236 47.1416L52.4293 44.4588C52.7845 44.2763 53.0008 43.9034 52.9819 43.5041L52.6503 37.5454L55.936 32.5714C56.157 32.2361 56.157 31.8013 55.936 31.466L52.6703 26.4921ZM50.8011 36.7215C50.6786 36.9013 50.6218 37.1175 50.6405 37.3345L50.9518 42.9715L45.9378 45.5036C45.7466 45.5994 45.5916 45.7549 45.4959 45.946L42.9633 50.96L37.3264 50.6488C37.1105 50.6409 36.8974 50.6966 36.7133 50.8093L32.0105 53.9145L27.3081 50.8093C27.1449 50.699 26.9525 50.6394 26.7555 50.6385H26.7053L21.0679 50.9501L18.5358 45.9358C18.44 45.7446 18.285 45.5896 18.0934 45.4938L13.0693 42.9715L13.3809 37.3345C13.3888 37.1186 13.3326 36.9055 13.22 36.7215L10.1151 32.0187L13.22 27.316C13.3428 27.1366 13.3998 26.9199 13.3809 26.7033L13.0693 21.0659L18.0836 18.5338C18.2748 18.438 18.4299 18.283 18.5256 18.0918L21.0578 13.0774L26.695 13.3891C26.9105 13.3965 27.1236 13.3408 27.3081 13.2281L32.0105 10.1233L36.7133 13.2281C36.893 13.351 37.1098 13.4079 37.3264 13.3891L42.9633 13.0774L45.4959 18.0918C45.5916 18.283 45.7466 18.438 45.9378 18.5338L50.9518 21.0659L50.6405 26.7033C50.6326 26.9188 50.6889 27.1319 50.8011 27.316L53.9063 32.0187L50.8011 36.7215Z" fill="black"/>
</svg>
