<svg width="64" height="64" viewBox="0 0 64 64" fill="none" xmlns="http://www.w3.org/2000/svg">
<g clip-path="url(#clip0_24_16)">
<path d="M34.6666 2.66665C34.6666 1.95941 34.9476 1.28114 35.4478 0.781035C35.9479 0.280937 36.6261 -1.38744e-05 37.3334 -1.38744e-05C44.4034 0.00775038 51.1816 2.81976 56.1809 7.81905C61.1803 12.8184 63.9923 19.5966 64 26.6666C64 27.3739 63.719 28.0521 63.219 28.5522C62.7189 29.0524 62.0406 29.3334 61.3334 29.3334C60.6261 29.3334 59.9478 29.0524 59.4478 28.5522C58.9476 28.0521 58.6666 27.3739 58.6666 26.6666C58.6603 21.0106 56.4106 15.5881 52.4113 11.5887C48.4119 7.58933 42.9894 5.33967 37.3334 5.33332C36.6261 5.33332 35.9479 5.05236 35.4478 4.55228C34.9476 4.05218 34.6666 3.3739 34.6666 2.66665ZM37.3334 16C40.1623 16 42.8754 17.1237 44.8758 19.1241C46.8763 21.1246 48 23.8376 48 26.6666C48 27.3739 48.281 28.0521 48.781 28.5522C49.2811 29.0524 49.9594 29.3334 50.6666 29.3334C51.3739 29.3334 52.0521 29.0524 52.5523 28.5522C53.0524 28.0521 53.3334 27.3739 53.3334 26.6666C53.3291 22.4245 51.642 18.3572 48.6424 15.3576C45.6428 12.358 41.5755 10.6709 37.3334 10.6666C36.6261 10.6666 35.9479 10.9476 35.4478 11.4477C34.9476 11.9478 34.6666 12.6261 34.6666 13.3334C34.6666 14.0406 34.9476 14.7189 35.4478 15.2189C35.9479 15.719 36.6261 16 37.3334 16ZM61.5814 44.6374C63.1268 46.187 63.9945 48.2861 63.9945 50.4746C63.9945 52.6631 63.1268 54.7624 61.5814 56.312L59.1546 59.1094C37.3146 80.0186 -15.832 26.8854 4.75467 4.97599L7.82134 2.30932C9.37272 0.807125 11.4532 -0.023883 13.6125 -0.00392097C15.7719 0.0160411 17.8366 0.885369 19.36 2.41599C19.4426 2.49865 24.384 8.91733 24.384 8.91733C25.8503 10.4577 26.6664 12.5037 26.6629 14.6304C26.6595 16.757 25.8366 18.8005 24.3654 20.336L21.2774 24.2186C22.9863 28.371 25.4989 32.1446 28.6708 35.3229C31.8425 38.5011 35.6111 41.0214 39.76 42.7386L43.6666 39.632C45.2024 38.1619 47.2455 37.34 49.3715 37.337C51.4974 37.334 53.5428 38.1503 55.0826 39.616C55.0826 39.616 61.4986 44.5546 61.5814 44.6374ZM57.912 48.5146C57.912 48.5146 51.5306 43.6054 51.448 43.5226C50.8986 42.9779 50.1563 42.6722 49.3826 42.6722C48.609 42.6722 47.8668 42.9779 47.3174 43.5226C47.2454 43.5974 41.8666 47.8826 41.8666 47.8826C41.5043 48.1711 41.0729 48.3602 40.615 48.4314C40.1573 48.5024 39.6889 48.453 39.256 48.288C33.8813 46.2869 28.9993 43.154 24.9409 39.1015C20.8825 35.0491 17.7424 30.1717 15.7334 24.8C15.5553 24.3612 15.4971 23.8829 15.5651 23.4142C15.633 22.9455 15.8246 22.5035 16.12 22.1334C16.12 22.1334 20.4054 16.752 20.4774 16.6826C21.022 16.1332 21.3276 15.391 21.3276 14.6174C21.3276 13.8436 21.022 13.1014 20.4774 12.552C20.3946 12.472 15.4854 6.08532 15.4854 6.08532C14.9278 5.58534 14.2 5.31758 13.4514 5.33691C12.7026 5.35625 11.9897 5.66122 11.4587 6.18932L8.392 8.85599C-6.65333 26.9466 39.4026 70.448 55.256 55.4666L57.6854 52.6666C58.2546 52.1394 58.5965 51.4114 58.6389 50.6365C58.6811 49.8618 58.4205 49.1008 57.912 48.5146Z" fill="#6E7FFC"/>
</g>
<defs>
<clipPath id="clip0_24_16">
<rect width="64" height="64" fill="white"/>
</clipPath>
</defs>
</svg>
