<svg width="64" height="64" viewBox="0 0 64 64" fill="none" xmlns="http://www.w3.org/2000/svg">
<g clip-path="url(#clip0_24_5)">
<path d="M10.6666 30.9499C4.77549 30.9499 0 35.7258 0 41.6165C0 47.5076 4.77549 52.283 10.6666 52.283C16.5577 52.283 21.3331 47.5076 21.3331 41.6165C21.3269 35.7285 16.555 30.9566 10.6666 30.9499ZM10.6666 50.1497C5.9536 50.1497 2.13331 46.3295 2.13331 41.6165C2.13331 36.9039 5.9536 33.0832 10.6666 33.0832C15.3796 33.0832 19.1998 36.9039 19.1998 41.6165C19.1946 46.3273 15.377 50.1445 10.6666 50.1497Z" fill="#040303"/>
<path d="M10.6666 37.3497C8.31036 37.3497 6.39996 39.2603 6.39996 41.6165C6.39996 43.9731 8.31036 45.883 10.6666 45.883C13.0228 45.883 14.9332 43.9731 14.9332 41.6165C14.9332 39.2603 13.0228 37.3497 10.6666 37.3497ZM10.6666 43.7497C9.48848 43.7497 8.53328 42.795 8.53328 41.6165C8.53328 40.4384 9.48848 39.4832 10.6666 39.4832C11.8447 39.4832 12.7999 40.4384 12.7999 41.6165C12.7999 42.795 11.8447 43.7497 10.6666 43.7497Z" fill="#040303"/>
<path d="M53.333 30.9499C52.083 30.9524 50.8429 31.1764 49.671 31.6113L48.7475 29.6915C50.0814 29.1775 51.4913 28.8895 52.9199 28.8379C53.0204 28.8379 53.1183 28.8233 53.2199 28.8222C55.337 28.7994 57.4266 29.3045 59.3 30.292C59.8204 30.5597 60.4595 30.3582 60.7318 29.84C61.0043 29.3218 60.8084 28.6812 60.2928 28.404C58.1642 27.2837 55.795 26.6978 53.3897 26.6973C53.3693 26.6973 53.3532 26.6858 53.333 26.6858C53.2954 26.6858 53.2606 26.6858 53.2261 26.6858C53.0366 26.6858 52.8475 26.7062 52.6579 26.7144C50.9981 26.7859 49.3622 27.1363 47.8184 27.7499L46.073 24.116C47.0439 24.4078 48.0528 24.5541 49.0663 24.5499C49.6553 24.5499 50.133 24.0729 50.133 23.4832V14.95C50.133 14.3609 49.6553 13.8833 49.0663 13.8833C46.5657 13.7547 44.1434 14.776 42.4903 16.6568L40.4263 12.3552C40.2492 11.9859 39.8757 11.751 39.4664 11.75H33.0664C32.4774 11.75 31.9997 12.2276 31.9997 12.8167C31.9997 13.4062 32.4774 13.8833 33.0664 13.8833H38.7955L40.3315 17.0833H31.6242C28.7685 17.0869 26.1931 18.8 25.0858 21.4322C24.9061 21.3807 24.7202 21.353 24.5331 21.3499H7.46661C5.11038 21.3499 3.19998 23.2603 3.19998 25.6166C3.20519 26.7348 4.0729 27.6592 5.18799 27.7353C3.8557 28.2555 2.6052 28.9665 1.47604 29.8451C1.01198 30.2082 0.929689 30.8784 1.29271 31.3426C1.65572 31.8066 2.32603 31.8889 2.79062 31.5259C6.64735 28.5154 11.8832 27.9666 16.2805 30.1129C20.6774 32.2586 23.467 36.7237 23.4666 41.6165V43.0217C23.3393 43.8352 23.554 44.6649 24.0597 45.3148C24.4733 45.707 25.0301 45.9127 25.5998 45.883H37.3331C38.1872 45.9023 39.0127 45.5716 39.6169 44.967C40.221 44.3627 40.5522 43.5377 40.533 42.683V41.6165C40.531 39.504 41.0554 37.4237 42.0586 35.5644C42.1288 35.4332 42.2096 35.3118 42.2846 35.1837C43.2252 33.5722 44.5044 32.1842 46.034 31.1155C46.0882 31.0779 46.1403 31.0353 46.1918 30.9993C46.3163 30.915 46.4497 30.8446 46.5768 30.7655C46.659 30.7144 46.7428 30.6655 46.8263 30.615L47.7522 32.5435C43.2346 35.34 41.47 41.0394 43.6185 45.8992C45.7664 50.7585 51.1689 53.2903 56.2777 51.8315C61.3866 50.3727 64.6375 45.3701 63.8959 40.1086C63.1537 34.8477 58.6459 30.9395 53.333 30.9499ZM43.733 19.2166C43.733 17.6999 45.5986 16.3901 47.9997 16.0843V22.3494C46.7007 22.2301 45.4742 21.6994 44.4976 20.8348L43.7383 19.2531C43.7383 19.2405 43.733 19.2286 43.733 19.2166ZM31.6242 19.2166H40.9403L44.1403 25.6166H28.1086C27.3123 25.616 26.667 24.9707 26.6664 24.1749C26.6695 21.438 28.8873 19.2197 31.6242 19.2166ZM7.46661 23.4832H24.5331V25.6166H5.3333C5.3333 24.4384 6.2885 23.4832 7.46661 23.4832ZM38.3997 42.683C38.4163 42.9712 38.3091 43.2519 38.1055 43.456C37.9018 43.6596 37.6205 43.7664 37.3331 43.7497H25.6081C25.5904 43.5633 25.5946 43.2753 25.5967 43.0482L25.5998 41.6165C25.6096 35.5024 21.8805 30.003 16.1962 27.7499H24.5331C25.1102 27.7493 25.6623 27.5144 26.0628 27.0983C26.6613 27.5217 27.3758 27.7493 28.1086 27.7499H45.4512L45.8992 28.6832C45.8054 28.7379 45.7137 28.7967 45.621 28.853C45.4075 28.98 45.1944 29.0993 44.9908 29.2357L44.9706 29.2519C44.6502 29.4655 44.3388 29.7019 44.034 29.9441C43.9371 29.9093 43.8357 29.8889 43.733 29.8832H29.8664C29.0044 29.8847 28.179 30.2332 27.5769 30.8499C26.9748 31.467 26.6467 32.3004 26.6664 33.1624V34.0711C26.6467 34.9331 26.9748 35.7665 27.5769 36.3837C28.179 37.0004 29.0044 37.3488 29.8664 37.3497H39.0288C38.8236 38.0488 38.67 38.7618 38.5706 39.4832H31.9997C31.4106 39.4832 30.9331 39.9607 30.9331 40.5497C30.9331 41.1394 31.4106 41.6165 31.9997 41.6165H38.3997V42.683ZM40.1788 34.5586C40.1606 34.5915 40.1383 34.6228 40.1201 34.6566C40.1106 34.6748 40.1117 34.6951 40.1033 34.7144C40.0179 34.8784 39.9408 35.0493 39.8611 35.2165H29.8664C29.5711 35.2123 29.2899 35.0878 29.0888 34.8718C28.8873 34.6555 28.7831 34.366 28.7998 34.0711V33.1624C28.7831 32.8676 28.8873 32.578 29.0888 32.3618C29.2899 32.1457 29.5711 32.0207 29.8664 32.0165H41.9018C41.3602 32.6686 40.8747 33.365 40.4508 34.0988C40.3612 34.2566 40.2633 34.4009 40.1788 34.5586ZM53.333 50.1497C49.5532 50.1555 46.2215 47.6727 45.1459 44.0492C44.0705 40.4258 45.5085 36.5274 48.6793 34.4701L50.5626 38.3957C49.0043 39.7805 48.7152 42.1066 49.8866 43.831C51.0585 45.5554 53.3272 46.144 55.1891 45.2054C57.0506 44.2675 57.9282 42.094 57.2391 40.1263C56.5501 38.1586 54.5084 37.0071 52.4679 37.4352L50.597 33.5379C53.8023 32.4477 57.349 33.3555 59.636 35.8524C61.9234 38.3487 62.5182 41.9612 61.1526 45.0591C59.7866 48.157 56.7188 50.1544 53.333 50.1497ZM53.333 39.4832C54.5111 39.4832 55.4663 40.4384 55.4663 41.6165C55.4663 42.795 54.5111 43.7497 53.333 43.7497C52.1549 43.7497 51.1995 42.795 51.1995 41.6165C51.2012 41.1534 51.3558 40.7034 51.6391 40.3368C51.8204 40.4727 52.0398 40.5471 52.2663 40.5497C52.548 40.5504 52.8188 40.4373 53.0173 40.2372C53.2157 40.0368 53.3257 39.7654 53.3235 39.4832H53.333Z" fill="#040303"/>
</g>
<defs>
<clipPath id="clip0_24_5">
<rect width="64" height="64" fill="white"/>
</clipPath>
</defs>
</svg>
