<svg width="64" height="64" viewBox="0 0 64 64" fill="none" xmlns="http://www.w3.org/2000/svg">
<path d="M47.7564 52.2825H38.569C36.0695 52.2825 34.0429 50.2559 34.0429 47.7564V35.394C34.0429 34.6509 34.6509 34.0429 35.394 34.0429H47.7564C50.2559 34.0429 52.2825 36.0695 52.2825 38.569V47.7564C52.2825 50.2559 50.2559 52.2825 47.7564 52.2825ZM36.745 36.7451V47.7564C36.745 48.7697 37.5558 49.5804 38.569 49.5804H47.7564C48.7696 49.5804 49.5804 48.7697 49.5804 47.7564V38.569C49.5804 37.5558 48.7696 36.7451 47.7564 36.7451H36.745Z" fill="#27334A"/>
<path d="M25.4635 52.2825H16.2761C13.7766 52.2825 11.75 50.2559 11.75 47.7564V38.569C11.75 36.0695 13.7766 34.0429 16.2761 34.0429H28.6385C29.3816 34.0429 29.9896 34.6509 29.9896 35.394V47.7564C29.9896 50.2559 27.963 52.2825 25.4635 52.2825ZM16.2761 36.7451C15.2629 36.7451 14.4521 37.5558 14.4521 38.569V47.7564C14.4521 48.7697 15.2629 49.5804 16.2761 49.5804H25.4635C26.4767 49.5804 27.2875 48.7697 27.2875 47.7564V36.7451H16.2761Z" fill="#27334A"/>
<path d="M47.7564 29.9896H35.394C34.6509 29.9896 34.0429 29.3816 34.0429 28.6385V16.2761C34.0429 13.7766 36.0695 11.75 38.569 11.75H47.7564C50.2559 11.75 52.2825 13.7766 52.2825 16.2761V25.4635C52.2825 27.963 50.2559 29.9896 47.7564 29.9896ZM36.745 27.2875H47.7564C48.7696 27.2875 49.5804 26.4767 49.5804 25.4635V16.2761C49.5804 15.2629 48.7696 14.4521 47.7564 14.4521H38.569C37.5558 14.4521 36.745 15.2629 36.745 16.2761V27.2875Z" fill="#27334A"/>
<path d="M28.6385 29.9896H16.2761C13.7766 29.9896 11.75 27.963 11.75 25.4635V16.2761C11.75 13.7766 13.7766 11.75 16.2761 11.75H25.4635C27.963 11.75 29.9896 13.7766 29.9896 16.2761V28.6385C29.9896 29.3816 29.3816 29.9896 28.6385 29.9896ZM16.2761 14.4521C15.2629 14.4521 14.4521 15.2629 14.4521 16.2761V25.4635C14.4521 26.4767 15.2629 27.2875 16.2761 27.2875H27.2875V16.2761C27.2875 15.2629 26.4767 14.4521 25.4635 14.4521H16.2761Z" fill="#03B8FF"/>
</svg>
