<svg width="64" height="64" viewBox="0 0 64 64" fill="none" xmlns="http://www.w3.org/2000/svg">
<g clip-path="url(#clip0_24_12)">
<path d="M54.6015 9.39844C48.541 3.33789 40.5141 0 32 0C14.3789 0 0 14.3809 0 32C0 37.2139 1.28028 42.3609 3.70948 46.9365L0.0551758 61.6739C-0.103027 62.3115 0.0844726 62.9859 0.549316 63.4506C1.01123 63.9131 1.68457 64.104 2.32617 63.9449L17.0635 60.29C21.6391 62.7193 26.7861 64 32 64C40.5141 64 48.541 60.6621 54.6015 54.6015C60.6621 48.5405 64 40.5141 64 32C64 23.4859 60.6621 15.459 54.6015 9.39844ZM32 60.25C27.1757 60.25 22.418 59.0083 18.2397 56.6601C17.8237 56.4263 17.334 56.3599 16.8696 56.4746L4.44385 59.5561L7.5249 47.1299C7.64014 46.6665 7.57372 46.1763 7.33985 45.7598C4.99121 41.582 3.75 36.8243 3.75 32C3.75 16.4229 16.4229 3.75 32 3.75C47.5771 3.75 60.25 16.4229 60.25 32C60.25 47.5771 47.5771 60.25 32 60.25Z" fill="#150B2C"/>
<path d="M48.9209 37.6934C47.6782 36.4502 46.31 35.1952 44.7295 34.4331C42.3676 33.2949 40.1142 33.6211 38.3837 35.3515C37.5962 36.1391 36.5127 37.6919 35.8891 38.4556C34.2807 38.1865 31.0674 35.477 29.7915 34.2056C28.5205 32.9297 25.813 29.7159 25.544 28.1109C26.3032 27.4907 27.8614 26.4029 28.6484 25.6162C30.3789 23.8857 30.7051 21.6319 29.5669 19.2705C28.8046 17.6895 27.5497 16.3217 26.3076 15.0796C23.7774 12.4961 19.8745 12.3057 16.5059 15.6747C13.9882 18.1919 11.7456 22.8584 15.355 30.7954C17.4907 35.4908 20.9326 39.6435 22.6294 41.3574L22.6426 41.3706C24.3565 43.0679 28.5092 46.5098 33.2046 48.645C38.5074 51.0566 44.1909 51.6289 48.3256 47.4946C51.7451 44.0748 51.457 40.1767 48.9209 37.6934ZM45.6739 44.8428C43.2319 47.2846 39.5591 47.4155 34.7569 45.2315C30.541 43.314 26.7236 40.1328 25.2876 38.7124C23.8671 37.2759 20.686 33.459 18.7685 29.2431C16.5845 24.4409 16.7154 20.7681 19.1572 18.3261C20.5825 16.9009 22.2231 16.2685 23.6284 17.7036L23.6552 17.731C26.9839 21.0596 26.7475 22.2134 25.9966 22.9644C25.3301 23.6309 23.3599 24.9687 22.7231 25.6055C21.2285 27.0996 21.5069 29.414 23.5497 32.4839C24.769 34.3164 26.3794 36.0947 27.1391 36.8565L27.1431 36.8609C27.9052 37.6206 29.6831 39.231 31.5156 40.4502C34.5859 42.4931 36.8999 42.771 38.394 41.2769C39.0312 40.6396 40.3686 38.6699 41.0351 38.0034C41.543 37.4956 42.0435 37.3018 43.1006 37.8115C44.3261 38.4024 45.6381 39.7144 46.269 40.3447L46.2964 40.3716C47.7426 41.7881 47.0996 43.417 45.6739 44.8428Z" fill="#150B2C"/>
</g>
<defs>
<clipPath id="clip0_24_12">
<rect width="64" height="64" fill="white"/>
</clipPath>
</defs>
</svg>
