<svg width="64" height="64" viewBox="0 0 64 64" fill="none" xmlns="http://www.w3.org/2000/svg">
<path fill-rule="evenodd" clip-rule="evenodd" d="M32.0163 52.2825C43.209 52.2825 52.2825 43.209 52.2825 32.0163C52.2825 20.8235 43.209 11.75 32.0163 11.75C20.8235 11.75 11.75 20.8235 11.75 32.0163C11.75 43.209 20.8235 52.2825 32.0163 52.2825ZM32.0163 49.5631C41.7071 49.5631 49.5631 41.7071 49.5631 32.0163C49.5631 22.3254 41.7071 14.4694 32.0163 14.4694C22.3254 14.4694 14.4694 22.3254 14.4694 32.0163C14.4694 41.7071 22.3254 49.5631 32.0163 49.5631Z" fill="black"/>
<path d="M30.6626 32.0949L30.9265 31.9295V31.6181V24.3139C30.9265 24.0151 31.0451 23.7286 31.2564 23.5174C31.4676 23.3061 31.7541 23.1875 32.0529 23.1875C32.3515 23.1875 32.638 23.3061 32.8493 23.5174C33.0605 23.7286 33.1791 24.0151 33.1791 24.3139V32.5537V32.5568L33.1793 32.5597C33.1813 32.7526 33.1338 32.9427 33.0413 33.1119C32.9488 33.2811 32.8145 33.4236 32.6511 33.526C32.651 33.5261 32.651 33.5261 32.651 33.5261L26.1664 37.579C26.1664 37.579 26.1664 37.579 26.1663 37.579C25.9121 37.7377 25.6053 37.7891 25.3133 37.7216C25.0213 37.6543 24.768 37.4735 24.6091 37.2192C24.4504 36.9651 24.399 36.6582 24.4665 36.3661C24.534 36.0741 24.7146 35.8209 24.9689 35.6621L24.9695 35.6616L30.6626 32.0949Z" stroke="black" stroke-width="0.5"/>
</svg>
