<svg width="64" height="64" viewBox="0 0 64 64" fill="none" xmlns="http://www.w3.org/2000/svg">
<g clip-path="url(#clip0_13_66)">
<path d="M18.6667 64C21.6122 64 24 61.6122 24 58.6667C24 55.7212 21.6122 53.3333 18.6667 53.3333C15.7212 53.3333 13.3333 55.7212 13.3333 58.6667C13.3333 61.6122 15.7212 64 18.6667 64Z" fill="#6E7FFC"/>
<path d="M45.3333 64C48.2789 64 50.6667 61.6122 50.6667 58.6667C50.6667 55.7212 48.2789 53.3333 45.3333 53.3333C42.3878 53.3333 40 55.7212 40 58.6667C40 61.6122 42.3878 64 45.3333 64Z" fill="#6E7FFC"/>
<path d="M61.2907 16.048C59.4135 14.2531 56.9006 13.2767 54.304 13.3333H15.0773L14.376 7.83467C14.1213 5.67652 13.0837 3.68681 11.4597 2.24277C9.83579 0.798716 7.73846 0.000698338 5.56533 0L4 0C2.93913 0 1.92172 0.421427 1.17157 1.17157C0.421427 1.92172 0 2.93913 0 4H0C0 5.06087 0.421427 6.07828 1.17157 6.82843C1.92172 7.57857 2.93913 8 4 8H5.56533C5.78348 8.00234 5.99304 8.08538 6.15358 8.23311C6.31411 8.38084 6.41425 8.58279 6.43467 8.8L10.4347 40.1573C10.687 42.3172 11.7237 44.3091 13.3479 45.7549C14.9722 47.2007 17.0708 47.9997 19.2453 48H46.2373C49.4482 47.9981 52.5697 46.9426 55.1228 44.9955C57.6759 43.0484 59.5195 40.3173 60.3707 37.2213L63.6933 25.1387C64.1363 23.5466 64.1472 21.8652 63.7249 20.2675C63.3026 18.6698 62.4624 17.2133 61.2907 16.048ZM52.6667 35.1013C52.2762 36.5075 51.4366 37.7474 50.2758 38.6318C49.1149 39.5163 47.6967 39.9968 46.2373 40H19.2453C19.0273 39.9982 18.8177 39.9153 18.6575 39.7674C18.4973 39.6195 18.3979 39.4172 18.3787 39.2L16.0987 21.3333H54.704C54.91 21.3318 55.1135 21.378 55.2986 21.4683C55.4837 21.5586 55.6454 21.6906 55.7709 21.8538C55.8965 22.0171 55.9825 22.2073 56.0223 22.4094C56.062 22.6115 56.0544 22.82 56 23.0187L52.6667 35.1013Z" fill="#4A4F6C"/>
<path d="M48.9338 25H20.5772C20.2727 25 20.0385 25.2685 20.0797 25.5703C20.4519 28.2996 21.1349 34.0764 21.4438 36.4911C21.4757 36.74 21.6811 36.9242 21.9319 36.9242H40.8732C44.9035 36.9242 46.168 36.887 48 35.5C49.832 33.7663 49.5758 33.2466 51.5152 26.811C51.6191 26.466 51.745 25.9945 51.8424 25.6192C51.924 25.3047 51.6862 25 51.3613 25L48.9338 25Z" fill="#6E7FFC" stroke="#6E7FFC"/>
</g>
<defs>
<clipPath id="clip0_13_66">
<rect width="64" height="64" fill="white"/>
</clipPath>
</defs>
</svg>
