<svg width="64" height="64" viewBox="0 0 64 64" fill="none" xmlns="http://www.w3.org/2000/svg">
<g clip-path="url(#clip0_11_33)">
<path d="M32 32C35.1645 32 38.258 31.0616 40.8891 29.3035C43.5203 27.5454 45.5711 25.0465 46.7821 22.123C47.9931 19.1994 48.3099 15.9822 47.6926 12.8786C47.0752 9.77486 45.5514 6.92394 43.3138 4.6863C41.0761 2.44866 38.2251 0.924807 35.1215 0.307443C32.0177 -0.309921 28.8006 0.00693274 25.8771 1.21794C22.9535 2.42894 20.4546 4.4797 18.6965 7.11089C16.9384 9.74208 16 12.8355 16 16C16.0043 20.2421 17.6913 24.3094 20.691 27.309C23.6906 30.3087 27.7579 31.9957 32 32ZM32 5.33334C34.1096 5.33334 36.172 5.95893 37.9261 7.131C39.6802 8.30306 41.0474 9.96897 41.8548 11.918C42.662 13.8671 42.8733 16.0119 42.4618 18.081C42.0501 20.1501 41.0342 22.0507 39.5425 23.5425C38.0507 25.0342 36.1501 26.0501 34.081 26.4618C32.0119 26.8733 29.8671 26.662 27.918 25.8547C25.969 25.0474 24.303 23.6802 23.131 21.9261C21.9589 20.172 21.3334 18.1096 21.3334 16C21.3334 13.171 22.4571 10.4579 24.4575 8.45754C26.4579 6.45715 29.171 5.33334 32 5.33334Z" fill="#6E7FFC"/>
<path d="M32 37.3334C25.637 37.3404 19.5366 39.8712 15.0372 44.3706C10.5379 48.8699 8.00706 54.9704 8 61.3334C8 62.0406 8.28095 62.7189 8.78105 63.219C9.28115 63.719 9.95942 64 10.6667 64C11.3739 64 12.0522 63.719 12.5522 63.219C13.0524 62.7189 13.3334 62.0406 13.3334 61.3334C13.3334 56.3826 15.3 51.6347 18.8006 48.134C22.3014 44.6334 27.0493 42.6666 32 42.6666C36.9507 42.6666 41.6986 44.6334 45.1994 48.134C48.7 51.6347 50.6666 56.3826 50.6666 61.3334C50.6666 62.0406 50.9476 62.7189 51.4478 63.219C51.9478 63.719 52.6261 64 53.3334 64C54.0406 64 54.7189 63.719 55.219 63.219C55.719 62.7189 56 62.0406 56 61.3334C55.993 54.9704 53.4621 48.8699 48.9627 44.3706C44.4634 39.8712 38.363 37.3404 32 37.3334Z" fill="#4A4F6C"/>
</g>
<defs>
<clipPath id="clip0_11_33">
<rect width="64" height="64" fill="white"/>
</clipPath>
</defs>
</svg>
