<svg width="64" height="64" viewBox="0 0 64 64" fill="none" xmlns="http://www.w3.org/2000/svg">
<g clip-path="url(#clip0_5_682)">
<path d="M32.3333 0.333344C14.6597 0.333344 0.333313 14.6597 0.333313 32.3333C0.333313 50.0069 14.6597 64.3333 32.3333 64.3333C50.0069 64.3333 64.3333 50.0069 64.3333 32.3333C64.3333 14.6597 50.0069 0.333344 32.3333 0.333344Z" fill="#2AA4F4"/>
<path d="M34.431 35.1435H42.0505L43.2473 27.4033H34.431V23.1725C34.431 19.9575 35.4821 17.106 38.4895 17.106H43.3224V10.3521C42.473 10.2373 40.6771 9.98706 37.2839 9.98706C30.1973 9.98706 26.0431 13.7291 26.0431 22.2554V27.4047H18.7578V35.1449H26.0416V56.4195C27.4843 56.6344 28.946 56.7816 30.4461 56.7816C31.8019 56.7816 33.1253 56.6579 34.431 56.4813V35.1435Z" fill="white"/>
</g>
<defs>
<clipPath id="clip0_5_682">
<rect width="64" height="64" fill="white"/>
</clipPath>
</defs>
</svg>
